<?xml version="1.0" encoding="UTF-8"?>
<svg version="1.1" xmlns="http://www.w3.org/2000/svg" width="614" height="677">
<path d="M0 0 C4.95198194 2.05405379 9.36746295 4.82309863 13.875 7.6875 C15.15852558 8.47531915 16.44371023 9.26044115 17.73046875 10.04296875 C20.30571414 11.61314872 22.87251944 13.19577409 25.43261719 14.79052734 C30.23867442 17.77835744 35.11772158 20.63902356 40 23.5 C41.73465617 24.52686893 43.46902381 25.55422539 45.203125 26.58203125 C49.70377636 29.24216321 54.21734235 31.87955634 58.734375 34.51171875 C60.07555038 35.29422019 61.41669624 36.07677224 62.7578125 36.859375 C64.74274246 38.01765366 66.72824823 39.1748736 68.71582031 40.32861328 C70.55693076 41.39735773 72.39583647 42.46980773 74.234375 43.54296875 C75.29881836 44.16196045 76.36326172 44.78095215 77.45996094 45.41870117 C80 47 80 47 82 49 C82.95916109 53.77355257 83.04053529 58.19673357 82.76098633 63.04248047 C82.68833978 64.42227469 82.61727032 65.80215262 82.54756165 67.18209839 C82.51044886 67.90391171 82.47333607 68.62572502 82.43509865 69.36941147 C82.21976273 74.06562888 82.1257386 78.76605608 82.022542 83.46586418 C81.92589788 87.57373161 81.7788305 91.66677106 81.51538086 95.76757812 C79.85107199 112.91358439 79.85107199 112.91358439 85.21219254 128.61328506 C91.08225291 134.65833856 98.87151331 138.24132225 106.51696777 141.51560116 C113.2171476 144.39981767 119.04417825 148.33752288 125.0625 152.4375 C130.19184631 155.96343633 130.19184631 155.96343633 136 158 C140.2219636 156.81617209 143.43009254 154.4880985 147 152 C148.92730792 150.88070095 150.86513259 149.77933573 152.8125 148.6953125 C154.87600275 147.50694784 156.93846183 146.3167695 159 145.125 C160.11141357 144.48369141 161.22282715 143.84238281 162.36791992 143.18164062 C168.34565678 139.72644017 174.30346017 136.23936226 180.23828125 132.7109375 C180.83293182 132.35750275 181.4275824 132.00406799 182.04025269 131.6399231 C184.88841763 129.94580007 187.73386012 128.24739826 190.57617188 126.54345703 C193.70609341 124.67546032 196.84964026 122.83329042 200 121 C200.56668396 120.66307129 201.13336792 120.32614258 201.71722412 119.97900391 C203.44094121 118.95873336 205.17939236 117.96348851 206.91796875 116.96875 C207.94043701 116.37513672 208.96290527 115.78152344 210.01635742 115.16992188 C213.60490817 113.76280828 215.32738559 113.93237598 219 115 C221.50341797 116.17651367 221.50341797 116.17651367 223.9921875 117.66796875 C224.93151123 118.22395752 225.87083496 118.77994629 226.83862305 119.3527832 C228.34162964 120.26096802 228.34162964 120.26096802 229.875 121.1875 C232.04542392 122.47681335 234.21600097 123.76586896 236.38671875 125.0546875 C237.49063965 125.71436523 238.59456055 126.37404297 239.73193359 127.05371094 C244.69585952 130.00996505 249.69226106 132.90959372 254.6875 135.8125 C258.79263559 138.20667384 262.89620977 140.60352098 267 143 C267.62221436 143.36319336 268.24442871 143.72638672 268.88549805 144.10058594 C272.9105642 146.4500747 276.93462167 148.80127644 280.95742798 151.15463257 C282.27268677 151.92374364 283.58825681 152.69232272 284.90414429 153.46035767 C286.73773209 154.53071196 288.57017422 155.60300156 290.40234375 156.67578125 C291.98776978 157.6025769 291.98776978 157.6025769 293.60522461 158.5480957 C296 160 296 160 297 161 C297.20690423 163.69861443 297.34844723 166.37377772 297.44677734 169.07714844 C297.48065552 169.92448044 297.51453369 170.77181244 297.54943848 171.64482117 C297.84722347 179.50128291 298.02732926 187.36038406 298.170187 195.22105026 C298.2683029 200.50107116 298.4058005 205.77339913 298.63916016 211.04931641 C300.10110598 244.96127603 300.10110598 244.96127603 295.10144043 253.08480835 C290.37008225 257.75564121 284.91992888 260.04898367 278.6663208 262.07183838 C274.82234951 263.40994692 271.65474022 265.47116067 268.28125 267.70703125 C267.13617242 268.40850917 265.9877866 269.10461933 264.8359375 269.79492188 C260.34110482 272.51340089 255.84672366 275.23255609 251.359375 277.96337891 C249.00062665 279.39337009 246.63710408 280.81176476 244.265625 282.22021484 C243.06242642 282.94226022 241.8592991 283.66442435 240.65625 284.38671875 C239.57150391 285.03213623 238.48675781 285.67755371 237.36914062 286.3425293 C236.58732422 286.88949463 235.80550781 287.43645996 235 288 C235 288.66 235 289.32 235 290 C236.44654701 291.14564837 236.44654701 291.14564837 238.390625 292.22265625 C239.14915771 292.6702832 239.90769043 293.11791016 240.68920898 293.57910156 C241.53427002 294.06862305 242.37933105 294.55814453 243.25 295.0625 C245.08002872 296.14090678 246.90941872 297.22039793 248.73828125 298.30078125 C249.73811035 298.88939941 250.73793945 299.47801758 251.76806641 300.08447266 C257.07811481 303.23167312 262.35112147 306.43950256 267.62463379 309.64743042 C269.3868316 310.71918392 271.14984625 311.78958079 272.91308594 312.85961914 C276.27749328 314.90298618 279.63954195 316.95014493 283 319 C283.60676575 319.3700415 284.21353149 319.74008301 284.83868408 320.12133789 C286.65522498 321.23022746 288.47040899 322.34130301 290.28515625 323.453125 C291.35773682 324.10958008 292.43031738 324.76603516 293.53540039 325.44238281 C296 327 296 327 297 328 C297.14317526 330.85890194 297.2211309 333.69443649 297.25634766 336.55541992 C297.27095032 337.45301025 297.28555298 338.35060059 297.30059814 339.27539062 C297.42668764 347.56579695 297.49535156 355.85717629 297.54844093 364.14834118 C297.58421929 369.72240696 297.63755121 375.29503151 297.73388672 380.8684082 C297.82666061 386.25136226 297.87535462 391.63304018 297.89283371 397.01674843 C297.90693876 399.06898774 297.936603 401.12118148 297.98213577 403.1729641 C298.32066731 419.21249771 298.32066731 419.21249771 295.16346741 423.48571777 C292.81871859 425.08479894 290.66753254 426.05406125 288 427 C286.88906982 427.67691895 285.77813965 428.35383789 284.63354492 429.05126953 C283.59302979 429.65567871 282.55251465 430.26008789 281.48046875 430.8828125 C280.60519279 431.39338699 280.60519279 431.39338699 279.7122345 431.91427612 C277.87217868 432.98715884 276.03002307 434.05636104 274.1875 435.125 C273.00048184 435.8148131 271.81363235 436.50491651 270.62695312 437.1953125 C270.02941727 437.53980438 269.43188141 437.88429626 268.8162384 438.23922729 C267.5767316 438.96917316 266.34988821 439.72099687 265.13578796 440.49246216 C261.36701306 442.84368891 257.9045415 444.3962203 253.6340332 445.65185547 C247.36157693 447.82531537 242.50020488 450.15150309 239 456 C235.20631086 469.04791206 237.13438774 484.34290861 237.68774414 497.73126221 C238.01467109 505.96953337 238.19410839 514.21041368 238.32730675 522.4538002 C238.39357003 525.32553015 238.52257988 528.18942626 238.65913391 531.05856323 C239.08619086 543.55740847 239.08619086 543.55740847 236.1854248 547.40997314 C233.84060871 549.00368164 231.65103745 550.0146285 229 551 C227.93507324 551.66644531 226.87014648 552.33289063 225.77294922 553.01953125 C224.79342285 553.61121094 223.81389648 554.20289063 222.8046875 554.8125 C221.68860107 555.48821045 220.57251465 556.1639209 219.42260742 556.86010742 C218.24007795 557.57341546 217.05754199 558.28671273 215.875 559 C214.63047813 559.75278446 213.38609553 560.50579919 212.1418457 561.2590332 C209.62542758 562.78228386 207.10853208 564.30474082 204.59130859 565.82666016 C199.45023183 568.93630529 194.31891593 572.06194834 189.1875 575.1875 C188.27299072 575.74332764 187.35848145 576.29915527 186.41625977 576.87182617 C181.46805536 579.88037984 176.52972542 582.90402535 171.6015625 585.9453125 C170.5494458 586.59218018 169.4973291 587.23904785 168.41333008 587.90551758 C166.39228285 589.14844332 164.37375694 590.39548108 162.3581543 591.6472168 C161.45234619 592.20320557 160.54653809 592.75919434 159.61328125 593.33203125 C158.81704346 593.82421143 158.02080566 594.3163916 157.20043945 594.82348633 C155.06326726 595.96617276 153.40214061 596.69899846 151 597 C148.63690641 595.78744148 146.56718255 594.5378781 144.375 593.0625 C142.93071432 592.12601866 141.48532241 591.19124205 140.0390625 590.2578125 C139.23887695 589.73735352 138.43869141 589.21689453 137.61425781 588.68066406 C132.70579922 585.52509543 127.72244762 582.49077958 122.75 579.4375 C121.7236142 578.80650894 120.69722839 578.17551788 119.63973999 577.52540588 C111.15662768 572.31365401 102.65337748 567.13582326 94.140625 561.97265625 C92.85431046 561.19212923 91.56801482 560.41157108 90.28173828 559.63098145 C87.18804178 557.75363103 84.09409489 555.87669376 81 554 C81.06661835 554.83699432 81.13323669 555.67398865 81.20187378 556.53634644 C81.80807195 564.50355135 82.26188699 572.46286879 82.55436516 580.44798088 C82.70989525 584.55373756 82.91931393 588.64023263 83.26318359 592.73486328 C85.35983843 618.37431153 85.35983843 618.37431153 79.71361542 625.65987778 C72.85747553 632.53168549 63.70409667 636.41248549 54.9210968 640.20423889 C48.54293739 643.01948599 42.75884626 646.84922316 36.875 650.5625 C34.59531759 651.9558539 32.30752547 653.33512479 30.01953125 654.71484375 C25.71560671 657.32596069 21.43443159 659.97092473 17.16937256 662.64506531 C14.59323947 664.25841065 12.01047696 665.86096239 9.42706299 667.46261597 C8.19463711 668.23092048 6.96550956 669.00454405 5.7399292 669.78372192 C4.04456687 670.86119353 2.33697398 671.9193477 0.62890625 672.9765625 C-0.33974365 673.58580566 -1.30839355 674.19504883 -2.30639648 674.82275391 C-5.53665221 676.23454518 -6.71000374 676.17327898 -10 675 C-12.70947266 673.57983398 -12.70947266 673.57983398 -15.6640625 671.74609375 C-16.77257568 671.06450195 -17.88108887 670.38291016 -19.02319336 669.68066406 C-19.60938446 669.31557739 -20.19557556 668.95049072 -20.79953003 668.57434082 C-23.93417547 666.62218989 -27.08357553 664.69403857 -30.23046875 662.76171875 C-30.87651566 662.36401276 -31.52256256 661.96630676 -32.18818665 661.55654907 C-38.72355791 657.53906855 -45.32606828 653.64084474 -51.9375 649.75 C-60.21332511 644.86579822 -68.45280236 639.93093678 -76.625 634.875 C-77.44734131 634.36678711 -78.26968262 633.85857422 -79.11694336 633.33496094 C-80.61915307 632.40052899 -82.11184257 631.45048265 -83.59112549 630.48016357 C-85.93732676 628.96429042 -85.93732676 628.96429042 -88.37190247 627.9510498 C-91.14904271 626.57097399 -92.94679437 625.34230623 -95 623 C-96.33910913 617.86694632 -96.18976754 612.79871827 -96.09765625 607.5390625 C-96.10331332 606.02304155 -96.11292949 604.50703065 -96.12632751 602.99105835 C-96.15088958 599.01518798 -96.12190511 595.04146657 -96.08154297 591.0657959 C-96.04984856 587.0034254 -96.06909723 582.94132586 -96.08398438 578.87890625 C-96.10568471 570.9186592 -96.07078685 562.95995948 -96 555 C-111.11816055 564.03351015 -111.11816055 564.03351015 -126.125 573.25 C-127.37518921 574.02174561 -127.37518921 574.02174561 -128.65063477 574.80908203 C-133.16223763 577.59654482 -137.65358183 580.41123854 -142.11676025 583.27575684 C-144.47179064 584.78368133 -146.8352632 586.27805523 -149.19989014 587.77087402 C-150.34956445 588.50140928 -151.49537046 589.23807159 -152.63702393 589.9810791 C-154.23631012 591.02113604 -155.85035592 592.03838843 -157.46484375 593.0546875 C-158.389021 593.64749512 -159.31319824 594.24030273 -160.26538086 594.85107422 C-163.71253279 596.29936428 -165.43539402 596.02761826 -169 595 C-171.45922852 593.80761719 -171.45922852 593.80761719 -173.87890625 592.296875 C-174.78874268 591.73564941 -175.6985791 591.17442383 -176.63598633 590.59619141 C-178.0846106 589.68232666 -178.0846106 589.68232666 -179.5625 588.75 C-180.58045654 588.11884277 -181.59841309 587.48768555 -182.6472168 586.83740234 C-184.75370843 585.53017252 -186.85762263 584.21878055 -188.95898438 582.90332031 C-192.56294934 580.64765951 -196.17946181 578.41280345 -199.79711914 576.17919922 C-202.3498657 574.60191254 -204.89971259 573.02001815 -207.44921875 571.4375 C-211.52945136 568.90735393 -215.61636763 566.38823607 -219.70703125 563.875 C-220.28147476 563.52198822 -220.85591827 563.16897644 -221.44776917 562.80526733 C-224.25005267 561.08340449 -227.0529446 559.36254973 -229.85668945 557.64306641 C-249.30193593 545.69806407 -249.30193593 545.69806407 -251 544 C-250.9867426 541.37412937 -250.90996539 538.77599678 -250.79272461 536.15405273 C-250.72663138 534.44695069 -250.66208511 532.73978825 -250.59886169 531.03257751 C-250.56499296 530.12134565 -250.53112423 529.21011379 -250.49622917 528.27126884 C-250.3026842 522.4213965 -250.21759127 516.56891088 -250.12616634 510.71668911 C-250.04004454 505.58032067 -249.90735307 500.45411804 -249.66625977 495.32250977 C-247.53941722 473.43029146 -247.53941722 473.43029146 -254.44363403 453.64294434 C-260.18694236 448.05585694 -267.50392715 445.00688051 -274.91085815 442.20889282 C-278.83180177 440.67448591 -281.9866345 438.71605636 -285.47265625 436.3671875 C-286.43107422 435.7690625 -287.38949219 435.1709375 -288.37695312 434.5546875 C-289.26318359 434.00039063 -290.14941406 433.44609375 -291.0625 432.875 C-292.49045898 431.98554687 -292.49045898 431.98554687 -293.94726562 431.078125 C-294.88376953 430.49289062 -295.82027344 429.90765625 -296.78515625 429.3046875 C-297.57801025 428.80952637 -298.37086426 428.31436523 -299.18774414 427.80419922 C-300.57981079 426.91112061 -300.57981079 426.91112061 -302 426 C-303.13148468 425.59373383 -303.13148468 425.59373383 -304.28582764 425.17926025 C-307.37116129 423.79695928 -308.92900346 422.70448703 -311 420 C-312.83099405 413.43559992 -312.26554752 406.2466645 -312.1953125 399.5 C-312.2013781 397.46027693 -312.21011526 395.42056022 -312.22140503 393.38085938 C-312.23466092 389.11004577 -312.21543558 384.84092854 -312.17333984 380.5703125 C-312.122054 375.1014506 -312.15158653 369.63656278 -312.20549202 364.16784668 C-312.23804947 359.9570533 -312.22764885 355.74719897 -312.20434189 351.53637695 C-312.19834745 349.52058438 -312.20567384 347.50470593 -312.22665787 345.48901367 C-312.35440708 329.76844621 -312.35440708 329.76844621 -309.09455872 325.5120697 C-306.76853719 323.9318849 -304.64149219 322.93918699 -302 322 C-301.0917749 321.42967041 -300.1835498 320.85934082 -299.24780273 320.27172852 C-298.48411377 319.81209717 -297.7204248 319.35246582 -296.93359375 318.87890625 C-296.04728271 318.34313965 -295.16097168 317.80737305 -294.24780273 317.25537109 C-293.32040283 316.69672363 -292.39300293 316.13807617 -291.4375 315.5625 C-282.89989734 310.39273682 -274.40084929 305.1654884 -265.9375 299.875 C-264.93323975 299.24795166 -263.92897949 298.62090332 -262.89428711 297.97485352 C-260.25799183 296.32411016 -257.62700299 294.66548202 -255 293 C-254.34789551 292.58911133 -253.69579102 292.17822266 -253.02392578 291.75488281 C-249.99730264 289.87113064 -249.99730264 289.87113064 -248 287 C-248.72638672 286.72776611 -249.45277344 286.45553223 -250.20117188 286.17504883 C-252.91165056 285.03709228 -255.2784755 283.7353543 -257.78125 282.19921875 C-258.69535645 281.64057129 -259.60946289 281.08192383 -260.55126953 280.50634766 C-261.52435059 279.90612793 -262.49743164 279.3059082 -263.5 278.6875 C-264.51304199 278.06665527 -265.52608398 277.44581055 -266.56982422 276.80615234 C-269.71624925 274.8756472 -272.85880015 272.93899401 -276 271 C-276.96325195 270.40558105 -277.92650391 269.81116211 -278.91894531 269.19873047 C-283.37370662 266.44762483 -287.8251338 263.6912212 -292.2734375 260.9296875 C-295.23209696 259.09348362 -298.19456245 257.26393297 -301.1640625 255.4453125 C-301.77878418 255.06874512 -302.39350586 254.69217773 -303.02685547 254.30419922 C-304.61616989 253.33187566 -306.20647718 252.36117547 -307.796875 251.390625 C-310 250 -310 250 -311 249 C-311.1430538 246.29369967 -311.22108329 243.61204973 -311.25634766 240.90356445 C-311.27095032 240.05474197 -311.28555298 239.20591949 -311.30059814 238.33137512 C-311.42669918 230.49066565 -311.49535623 222.64892769 -311.54844093 214.80741596 C-311.58421479 209.5359799 -311.6375342 204.26606841 -311.73388672 198.99536133 C-311.82668653 193.90417078 -311.87535847 188.81432994 -311.89283371 183.72234154 C-311.90693464 181.78173604 -311.93658991 179.84117848 -311.98213577 177.90105629 C-312.32091043 162.72746764 -312.32091043 162.72746764 -309.13792419 158.56480408 C-306.80403578 156.97497568 -304.64541509 155.96672715 -302 155 C-300.99042236 154.38890381 -299.98084473 153.77780762 -298.94067383 153.14819336 C-298.03857178 152.63393799 -297.13646973 152.11968262 -296.20703125 151.58984375 C-295.17626465 150.99937256 -294.14549805 150.40890137 -293.08349609 149.80053711 C-291.46435303 148.87833374 -291.46435303 148.87833374 -289.8125 147.9375 C-287.48773711 146.60510201 -285.16340272 145.27199277 -282.83984375 143.9375 C-281.96915253 143.43783974 -281.96915253 143.43783974 -281.08087158 142.92808533 C-275.65237544 139.80897391 -270.26010519 136.63073999 -264.875 133.4375 C-263.56474854 132.66466675 -263.56474854 132.66466675 -262.22802734 131.8762207 C-257.29059303 128.96225842 -252.3743005 126.01678171 -247.47265625 123.04296875 C-245.29440351 121.7367579 -243.11602093 120.43076353 -240.9375 119.125 C-239.91962402 118.49907959 -238.90174805 117.87315918 -237.85302734 117.22827148 C-236.89992676 116.66052002 -235.94682617 116.09276855 -234.96484375 115.5078125 C-234.1255835 114.99879395 -233.28632324 114.48977539 -232.42163086 113.96533203 C-229.37949492 112.75264875 -228.08912146 112.96852156 -225 114 C-223.01786952 114.9779644 -221.07344611 116.03401869 -219.16015625 117.140625 C-218.02602295 117.79248779 -216.89188965 118.44435059 -215.72338867 119.1159668 C-214.50298 119.82711826 -213.28268649 120.53846739 -212.0625 121.25 C-210.79757742 121.9807364 -209.53235585 122.71095546 -208.2668457 123.44067383 C-199.82845674 128.31566354 -191.43876204 133.2725379 -183.05932617 138.24804688 C-176.20057225 142.31230525 -169.30291303 146.30479483 -162.375 150.25 C-161.39619873 150.81162842 -160.41739746 151.37325684 -159.40893555 151.9519043 C-158.49797119 152.46793213 -157.58700684 152.98395996 -156.6484375 153.515625 C-155.84583496 153.97227539 -155.04323242 154.42892578 -154.21630859 154.89941406 C-151.23225056 156.38824424 -151.23225056 156.38824424 -148 157 C-145.44399249 155.99319158 -145.44399249 155.99319158 -142.80078125 154.34375 C-141.76759766 153.73990479 -140.73441406 153.13605957 -139.66992188 152.51391602 C-138.56197266 151.84932373 -137.45402344 151.18473145 -136.3125 150.5 C-135.16142429 149.82178701 -134.00972246 149.14463565 -132.85742188 148.46850586 C-126.80995412 144.90924566 -120.80252175 141.28292873 -114.79296875 137.66015625 C-114.21783035 137.3137912 -113.64269196 136.96742615 -113.05012512 136.61056519 C-110.27745854 134.93989857 -107.50927998 133.26253574 -104.74731445 131.57421875 C-103.75820068 130.97351563 -102.76908691 130.3728125 -101.75 129.75390625 C-100.87859375 129.22095947 -100.0071875 128.6880127 -99.109375 128.13891602 C-97 127 -97 127 -95 127 C-95.0199855 126.03613373 -95.03997101 125.07226746 -95.06056213 124.07919312 C-95.24316438 114.98683131 -95.37799274 105.89484226 -95.46630955 96.80106163 C-95.51324289 92.12587331 -95.5768726 87.45216718 -95.67895508 82.77783203 C-95.77689373 78.26489385 -95.83058665 73.75337898 -95.85389519 69.23945999 C-95.87049985 67.51929944 -95.90292864 65.79921518 -95.95157051 64.07966232 C-96.31655933 50.63981771 -96.31655933 50.63981771 -93.16322327 46.7122345 C-90.83461831 45.12825025 -88.6079954 44.04905419 -86 43 C-84.34931519 41.99247681 -84.34931519 41.99247681 -82.6652832 40.96459961 C-81.63749756 40.36655518 -80.60971191 39.76851074 -79.55078125 39.15234375 C-78.6940406 38.65205658 -78.6940406 38.65205658 -77.81999207 38.1416626 C-75.98560765 37.07110474 -74.14907393 36.00429642 -72.3125 34.9375 C-70.36657918 33.80315024 -68.42122654 32.66783053 -66.47592163 31.53242493 C-65.17371294 30.77242232 -63.87132492 30.01272689 -62.5687561 29.25334167 C-56.86286119 25.9254553 -51.17998538 22.5593916 -45.5 19.1875 C-10.51524638 -1.54601099 -10.51524638 -1.54601099 0 0 Z " fill="#087D7B" transform="translate(313,0)"/>
<path d="M0 0 C2.49122488 2.21148188 4.94685315 4.45472749 7.38671875 6.72265625 C8.38445312 7.63917969 8.38445312 7.63917969 9.40234375 8.57421875 C15.7972376 14.68316206 21.07831787 21.6772328 26.38671875 28.72265625 C27.04124023 29.58600586 27.04124023 29.58600586 27.70898438 30.46679688 C48.09087079 57.5292409 60.25621897 88.55057667 66.38671875 121.72265625 C66.57435791 122.67140625 66.76199707 123.62015625 66.95532227 124.59765625 C68.75042453 134.61891249 68.74113574 144.57679185 68.69921875 154.72265625 C68.69648453 156.08926895 68.69648453 156.08926895 68.69369507 157.48348999 C68.64887423 170.76870737 68.26991349 183.7046804 65.38671875 196.72265625 C65.2151123 197.53283203 65.04350586 198.34300781 64.86669922 199.17773438 C53.331331 252.57648984 21.1150387 300.68909861 -24.53271484 330.99707031 C-55.7316577 351.01578215 -92.95592657 364.62443935 -130.2734375 364.9609375 C-131.17288589 364.97068604 -132.07233429 364.98043457 -132.9990387 364.99047852 C-151.88416961 365.15319808 -170.16737565 365.26876138 -188.61328125 360.72265625 C-189.4012207 360.5407373 -190.18916016 360.35881836 -191.00097656 360.17138672 C-209.11886179 355.93883691 -226.24426134 348.45858942 -242.61328125 339.72265625 C-244.36511719 338.80226563 -244.36511719 338.80226563 -246.15234375 337.86328125 C-269.02879109 325.36644094 -289.53472491 307.10548932 -305.61328125 286.72265625 C-306.36996094 285.81773437 -307.12664062 284.9128125 -307.90625 283.98046875 C-327.44873445 259.94289407 -339.92507783 230.61056749 -346.86328125 200.59765625 C-347.01450439 199.95481689 -347.16572754 199.31197754 -347.3215332 198.6496582 C-350.27643252 184.9997252 -350.96647681 171.20148765 -350.86328125 157.28515625 C-350.85984711 156.52029907 -350.85641296 155.75544189 -350.85287476 154.96740723 C-350.79416329 143.78979351 -350.62520968 132.74431274 -348.61328125 121.72265625 C-348.45730469 120.85350586 -348.30132812 119.98435547 -348.140625 119.08886719 C-338.10277418 64.97741582 -307.69031811 16.48097275 -262.61328125 -15.27734375 C-262.02901367 -15.69032715 -261.44474609 -16.10331055 -260.84277344 -16.52880859 C-237.41914575 -32.84339943 -210.53974248 -43.65263916 -182.61328125 -49.27734375 C-181.84242188 -49.43960449 -181.0715625 -49.60186523 -180.27734375 -49.76904297 C-116.42554467 -62.61630072 -48.57520781 -42.33086122 0 0 Z " fill="#077E7C" transform="translate(447.61328125,186.27734375)"/>
<path d="M0 0 C4.95198194 2.05405379 9.36746295 4.82309863 13.875 7.6875 C15.15852558 8.47531915 16.44371023 9.26044115 17.73046875 10.04296875 C20.30571414 11.61314872 22.87251944 13.19577409 25.43261719 14.79052734 C30.23867442 17.77835744 35.11772158 20.63902356 40 23.5 C41.73465617 24.52686893 43.46902381 25.55422539 45.203125 26.58203125 C49.70377636 29.24216321 54.21734235 31.87955634 58.734375 34.51171875 C60.07555038 35.29422019 61.41669624 36.07677224 62.7578125 36.859375 C64.74274246 38.01765366 66.72824823 39.1748736 68.71582031 40.32861328 C70.55693076 41.39735773 72.39583647 42.46980773 74.234375 43.54296875 C75.29881836 44.16196045 76.36326172 44.78095215 77.45996094 45.41870117 C80 47 80 47 82 49 C82.93087903 53.80860195 83.14518145 58.51546383 83.20532227 63.40405273 C83.21522186 64.107332 83.22512146 64.81061127 83.23532104 65.53520203 C83.26663411 67.83463297 83.29157252 70.1340845 83.31640625 72.43359375 C83.33700194 74.03785201 83.35799906 75.64210516 83.37937927 77.24635315 C83.4343301 81.44989868 83.48385733 85.65349097 83.53222656 89.8571167 C83.58263982 94.1541353 83.63822196 98.45108676 83.69335938 102.74804688 C83.80061037 111.16530766 83.90212744 119.58262496 84 128 C83.05595306 128.30063354 82.11190613 128.60126709 81.13925171 128.91101074 C78.10420228 129.9638528 76.19536542 131.10096295 73.6640625 133.03125 C59.62897525 142.91325479 59.62897525 142.91325479 50.70703125 141.453125 C46.59551054 140.46722175 42.66420012 139.14951923 38.68359375 137.734375 C33.58838088 135.94994188 29.17708703 135.70657787 23.80883789 135.96582031 C21 136 21 136 18.19506836 135.5234375 C14.18043194 134.86573287 10.28001346 134.81930157 6.21875 134.796875 C5.37640305 134.78986069 4.53405609 134.78284637 3.66618347 134.77561951 C0.944068 134.75811781 -1.77783024 134.75176223 -4.5 134.75 C-5.89042007 134.74898788 -5.89042007 134.74898788 -7.30892944 134.74795532 C-21.07269658 134.76391098 -34.4885089 135.1320608 -48 138 C-48.82580566 138.17160645 -49.65161133 138.34321289 -50.50244141 138.52001953 C-89.58560065 146.89979635 -124.17663894 165.43662321 -153 193 C-153.92683594 193.87398437 -154.85367188 194.74796875 -155.80859375 195.6484375 C-191.70406263 230.37284853 -214.10584154 282.13011567 -215.17016602 331.94271851 C-215.22703582 335.586862 -215.24710769 339.2304407 -215.25 342.875 C-215.25067474 343.64490265 -215.25134949 344.4148053 -215.25204468 345.20803833 C-215.21893881 369.10088268 -211.59252011 392.10479884 -202.87963867 414.4465332 C-199.99700416 422.02019832 -199.99700416 422.02019832 -201 426 C-203.73898171 428.44984303 -206.81011422 430.19757989 -210 432 C-210.72123047 432.42684082 -211.44246094 432.85368164 -212.18554688 433.29345703 C-214.3611681 434.57296785 -216.55306413 435.81998233 -218.75 437.0625 C-227.05457003 441.79781133 -235.18007122 446.78485531 -243.23339844 451.93579102 C-244.07418945 452.46615967 -244.91498047 452.99652832 -245.78125 453.54296875 C-246.52439453 454.01758545 -247.26753906 454.49220215 -248.03320312 454.98120117 C-250 456 -250 456 -253 456 C-255.45974533 454.71098426 -257.81447919 453.37251666 -260.1875 451.9375 C-261.28952759 451.28007813 -261.28952759 451.28007813 -262.41381836 450.609375 C-272.08273871 444.80543884 -281.61999803 438.78476653 -291.16503906 432.78027344 C-293.79112114 431.13116988 -296.42148827 429.48927111 -299.0546875 427.8515625 C-299.80355225 427.38556641 -300.55241699 426.91957031 -301.32397461 426.43945312 C-302.69666067 425.5857461 -304.06984239 424.73283536 -305.44360352 423.88085938 C-309.88862345 421.11137655 -309.88862345 421.11137655 -311 420 C-311.14315184 417.17162169 -311.22112185 414.36685666 -311.25634766 411.53637695 C-311.27095032 410.64854019 -311.28555298 409.76070343 -311.30059814 408.84596252 C-311.42668985 400.64549528 -311.49535245 392.44404441 -311.54844093 384.24281025 C-311.58421843 378.72927078 -311.63754796 373.21718846 -311.73388672 367.7043457 C-311.82666557 362.37974443 -311.87535535 357.05643337 -311.89283371 351.73106956 C-311.90693797 349.7011571 -311.9366005 347.67129066 -311.98213577 345.64183998 C-312.32127344 329.74926918 -312.32127344 329.74926918 -309.11238098 325.50093079 C-306.77945261 323.91636957 -304.65257012 322.93187933 -302 322 C-301.0917749 321.42967041 -300.1835498 320.85934082 -299.24780273 320.27172852 C-298.48411377 319.81209717 -297.7204248 319.35246582 -296.93359375 318.87890625 C-296.04728271 318.34313965 -295.16097168 317.80737305 -294.24780273 317.25537109 C-293.32040283 316.69672363 -292.39300293 316.13807617 -291.4375 315.5625 C-282.89989734 310.39273682 -274.40084929 305.1654884 -265.9375 299.875 C-264.93323975 299.24795166 -263.92897949 298.62090332 -262.89428711 297.97485352 C-260.25799183 296.32411016 -257.62700299 294.66548202 -255 293 C-254.34789551 292.58911133 -253.69579102 292.17822266 -253.02392578 291.75488281 C-249.99730264 289.87113064 -249.99730264 289.87113064 -248 287 C-248.72638672 286.72776611 -249.45277344 286.45553223 -250.20117188 286.17504883 C-252.91165056 285.03709228 -255.2784755 283.7353543 -257.78125 282.19921875 C-258.69535645 281.64057129 -259.60946289 281.08192383 -260.55126953 280.50634766 C-261.52435059 279.90612793 -262.49743164 279.3059082 -263.5 278.6875 C-264.51304199 278.06665527 -265.52608398 277.44581055 -266.56982422 276.80615234 C-269.71624925 274.8756472 -272.85880015 272.93899401 -276 271 C-276.96325195 270.40558105 -277.92650391 269.81116211 -278.91894531 269.19873047 C-283.37370662 266.44762483 -287.8251338 263.6912212 -292.2734375 260.9296875 C-295.23209696 259.09348362 -298.19456245 257.26393297 -301.1640625 255.4453125 C-301.77878418 255.06874512 -302.39350586 254.69217773 -303.02685547 254.30419922 C-304.61616989 253.33187566 -306.20647718 252.36117547 -307.796875 251.390625 C-310 250 -310 250 -311 249 C-311.1430538 246.29369967 -311.22108329 243.61204973 -311.25634766 240.90356445 C-311.27095032 240.05474197 -311.28555298 239.20591949 -311.30059814 238.33137512 C-311.42669918 230.49066565 -311.49535623 222.64892769 -311.54844093 214.80741596 C-311.58421479 209.5359799 -311.6375342 204.26606841 -311.73388672 198.99536133 C-311.82668653 193.90417078 -311.87535847 188.81432994 -311.89283371 183.72234154 C-311.90693464 181.78173604 -311.93658991 179.84117848 -311.98213577 177.90105629 C-312.32091043 162.72746764 -312.32091043 162.72746764 -309.13792419 158.56480408 C-306.80403578 156.97497568 -304.64541509 155.96672715 -302 155 C-300.99042236 154.38890381 -299.98084473 153.77780762 -298.94067383 153.14819336 C-298.03857178 152.63393799 -297.13646973 152.11968262 -296.20703125 151.58984375 C-295.17626465 150.99937256 -294.14549805 150.40890137 -293.08349609 149.80053711 C-291.46435303 148.87833374 -291.46435303 148.87833374 -289.8125 147.9375 C-287.48773711 146.60510201 -285.16340272 145.27199277 -282.83984375 143.9375 C-281.96915253 143.43783974 -281.96915253 143.43783974 -281.08087158 142.92808533 C-275.65237544 139.80897391 -270.26010519 136.63073999 -264.875 133.4375 C-263.56474854 132.66466675 -263.56474854 132.66466675 -262.22802734 131.8762207 C-257.29059303 128.96225842 -252.3743005 126.01678171 -247.47265625 123.04296875 C-245.29440351 121.7367579 -243.11602093 120.43076353 -240.9375 119.125 C-239.91962402 118.49907959 -238.90174805 117.87315918 -237.85302734 117.22827148 C-236.89992676 116.66052002 -235.94682617 116.09276855 -234.96484375 115.5078125 C-234.1255835 114.99879395 -233.28632324 114.48977539 -232.42163086 113.96533203 C-229.37949492 112.75264875 -228.08912146 112.96852156 -225 114 C-223.01786952 114.9779644 -221.07344611 116.03401869 -219.16015625 117.140625 C-218.02602295 117.79248779 -216.89188965 118.44435059 -215.72338867 119.1159668 C-214.50298 119.82711826 -213.28268649 120.53846739 -212.0625 121.25 C-210.79757742 121.9807364 -209.53235585 122.71095546 -208.2668457 123.44067383 C-199.82845674 128.31566354 -191.43876204 133.2725379 -183.05932617 138.24804688 C-176.20057225 142.31230525 -169.30291303 146.30479483 -162.375 150.25 C-161.39619873 150.81162842 -160.41739746 151.37325684 -159.40893555 151.9519043 C-158.49797119 152.46793213 -157.58700684 152.98395996 -156.6484375 153.515625 C-155.84583496 153.97227539 -155.04323242 154.42892578 -154.21630859 154.89941406 C-151.23225056 156.38824424 -151.23225056 156.38824424 -148 157 C-145.44399249 155.99319158 -145.44399249 155.99319158 -142.80078125 154.34375 C-141.76759766 153.73990479 -140.73441406 153.13605957 -139.66992188 152.51391602 C-138.56197266 151.84932373 -137.45402344 151.18473145 -136.3125 150.5 C-135.16142429 149.82178701 -134.00972246 149.14463565 -132.85742188 148.46850586 C-126.80995412 144.90924566 -120.80252175 141.28292873 -114.79296875 137.66015625 C-114.21783035 137.3137912 -113.64269196 136.96742615 -113.05012512 136.61056519 C-110.27745854 134.93989857 -107.50927998 133.26253574 -104.74731445 131.57421875 C-103.75820068 130.97351563 -102.76908691 130.3728125 -101.75 129.75390625 C-100.87859375 129.22095947 -100.0071875 128.6880127 -99.109375 128.13891602 C-97 127 -97 127 -95 127 C-95.0199855 126.03613373 -95.03997101 125.07226746 -95.06056213 124.07919312 C-95.24316438 114.98683131 -95.37799274 105.89484226 -95.46630955 96.80106163 C-95.51324289 92.12587331 -95.5768726 87.45216718 -95.67895508 82.77783203 C-95.77689373 78.26489385 -95.83058665 73.75337898 -95.85389519 69.23945999 C-95.87049985 67.51929944 -95.90292864 65.79921518 -95.95157051 64.07966232 C-96.31655933 50.63981771 -96.31655933 50.63981771 -93.16322327 46.7122345 C-90.83461831 45.12825025 -88.6079954 44.04905419 -86 43 C-84.34931519 41.99247681 -84.34931519 41.99247681 -82.6652832 40.96459961 C-81.63749756 40.36655518 -80.60971191 39.76851074 -79.55078125 39.15234375 C-78.6940406 38.65205658 -78.6940406 38.65205658 -77.81999207 38.1416626 C-75.98560765 37.07110474 -74.14907393 36.00429642 -72.3125 34.9375 C-70.36657918 33.80315024 -68.42122654 32.66783053 -66.47592163 31.53242493 C-65.17371294 30.77242232 -63.87132492 30.01272689 -62.5687561 29.25334167 C-56.86286119 25.9254553 -51.17998538 22.5593916 -45.5 19.1875 C-10.51524638 -1.54601099 -10.51524638 -1.54601099 0 0 Z " fill="#35B0A5" transform="translate(313,0)"/>
<path d="M0 0 C2.50341797 1.17651367 2.50341797 1.17651367 4.9921875 2.66796875 C6.4011731 3.5019519 6.4011731 3.5019519 7.83862305 4.3527832 C8.84062744 4.95823975 9.84263184 5.56369629 10.875 6.1875 C13.04542392 7.47681335 15.21600097 8.76586896 17.38671875 10.0546875 C18.49063965 10.71436523 19.59456055 11.37404297 20.73193359 12.05371094 C25.69585952 15.00996505 30.69226106 17.90959372 35.6875 20.8125 C39.79263559 23.20667384 43.89620977 25.60352098 48 28 C48.62221436 28.36319336 49.24442871 28.72638672 49.88549805 29.10058594 C53.9105642 31.4500747 57.93462167 33.80127644 61.95742798 36.15463257 C63.27268677 36.92374364 64.58825681 37.69232272 65.90414429 38.46035767 C67.73773209 39.53071196 69.57017422 40.60300156 71.40234375 41.67578125 C72.45929443 42.29364502 73.51624512 42.91150879 74.60522461 43.5480957 C77 45 77 45 78 46 C78.20690423 48.69861443 78.34844723 51.37377772 78.44677734 54.07714844 C78.48065552 54.92448044 78.51453369 55.77181244 78.54943848 56.64482117 C78.84722347 64.50128291 79.02732926 72.36038406 79.170187 80.22105026 C79.2683029 85.50107116 79.4058005 90.77339913 79.63916016 96.04931641 C81.10110598 129.96127603 81.10110598 129.96127603 76.10144043 138.08480835 C71.37008225 142.75564121 65.91992888 145.04898367 59.6663208 147.07183838 C55.82234951 148.40994692 52.65474022 150.47116067 49.28125 152.70703125 C48.13617242 153.40850917 46.9877866 154.10461933 45.8359375 154.79492188 C41.34110482 157.51340089 36.84672366 160.23255609 32.359375 162.96337891 C30.00062665 164.39337009 27.63710408 165.81176476 25.265625 167.22021484 C24.06242642 167.94226022 22.8592991 168.66442435 21.65625 169.38671875 C20.57150391 170.03213623 19.48675781 170.67755371 18.36914062 171.3425293 C17.58732422 171.88949463 16.80550781 172.43645996 16 173 C16 173.66 16 174.32 16 175 C17.44654701 176.14564837 17.44654701 176.14564837 19.390625 177.22265625 C20.14915771 177.6702832 20.90769043 178.11791016 21.68920898 178.57910156 C22.53427002 179.06862305 23.37933105 179.55814453 24.25 180.0625 C26.08002872 181.14090678 27.90941872 182.22039793 29.73828125 183.30078125 C30.73811035 183.88939941 31.73793945 184.47801758 32.76806641 185.08447266 C38.07811481 188.23167312 43.35112147 191.43950256 48.62463379 194.64743042 C50.3868316 195.71918392 52.14984625 196.78958079 53.91308594 197.85961914 C57.27749328 199.90298618 60.63954195 201.95014493 64 204 C64.60676575 204.3700415 65.21353149 204.74008301 65.83868408 205.12133789 C67.65522498 206.23022746 69.47040899 207.34130301 71.28515625 208.453125 C72.35773682 209.10958008 73.43031738 209.76603516 74.53540039 210.44238281 C77 212 77 212 78 213 C78.14317526 215.85890194 78.2211309 218.69443649 78.25634766 221.55541992 C78.27095032 222.45301025 78.28555298 223.35060059 78.30059814 224.27539062 C78.42668764 232.56579695 78.49535156 240.85717629 78.54844093 249.14834118 C78.58421929 254.72240696 78.63755121 260.29503151 78.73388672 265.8684082 C78.82666061 271.25136226 78.87535462 276.63304018 78.89283371 282.01674843 C78.90693876 284.06898774 78.936603 286.12118148 78.98213577 288.1729641 C79.32066731 304.21249771 79.32066731 304.21249771 76.16346741 308.48571777 C73.81871859 310.08479894 71.66753254 311.05406125 69 312 C67.88906982 312.67691895 66.77813965 313.35383789 65.63354492 314.05126953 C64.59302979 314.65567871 63.55251465 315.26008789 62.48046875 315.8828125 C61.90297882 316.21957001 61.32548889 316.55632751 60.73049927 316.90328979 C59.50970643 317.61492284 58.28822158 318.32536998 57.06607056 319.03466797 C53.86097864 320.89491983 50.66105783 322.7640252 47.4609375 324.6328125 C46.82559586 325.00359924 46.19025421 325.37438599 45.53565979 325.75640869 C38.92818109 329.61719226 32.36580918 333.55192647 25.81518555 337.50830078 C25.06793213 337.95931152 24.32067871 338.41032227 23.55078125 338.875 C22.90794189 339.26429688 22.26510254 339.65359375 21.6027832 340.0546875 C20.42721096 340.74803338 19.22072064 341.38963968 18 342 C16.16259766 341.20239258 16.16259766 341.20239258 13.9140625 339.89453125 C13.07520508 339.41121338 12.23634766 338.92789551 11.37207031 338.42993164 C10.46553711 337.8961792 9.55900391 337.36242676 8.625 336.8125 C7.22652832 336.00123657 7.22652832 336.00123657 5.79980469 335.17358398 C-1.56288724 330.88694098 -8.87838216 326.51910548 -16.16162109 322.09887695 C-21.37491211 318.93988781 -26.65092504 315.92323927 -32 313 C-30.78207597 306.05181288 -28.96158669 299.54318917 -26.6875 292.875 C-24.01091201 284.75129605 -21.85860733 276.62594373 -20.125 268.25 C-19.92221436 267.27530762 -19.71942871 266.30061523 -19.51049805 265.29638672 C-14.25072398 238.8362015 -14.57597403 208.14972626 -21 182 C-21.24137695 180.98631348 -21.48275391 179.97262695 -21.73144531 178.92822266 C-34.71688251 125.57359296 -66.97215593 79.4734365 -113.625 50.4375 C-138.50915438 35.3934979 -165.49766497 26.35478367 -194 21 C-194 20.67 -194 20.34 -194 20 C-187.35357123 19.69540456 -181.61475715 20.80482376 -175.1875 22.4375 C-174.24712891 22.66759766 -173.30675781 22.89769531 -172.33789062 23.13476562 C-168.84680792 23.99568309 -165.41241323 24.86252892 -162 26 C-159.6200079 24.92070538 -159.6200079 24.92070538 -157.10546875 23.25390625 C-156.14962891 22.66416016 -155.19378906 22.07441406 -154.20898438 21.46679688 C-152.20480913 20.20366122 -150.20218584 18.93805957 -148.20117188 17.66992188 C-147.24146484 17.07888672 -146.28175781 16.48785156 -145.29296875 15.87890625 C-144.4218042 15.3279126 -143.55063965 14.77691895 -142.65307617 14.20922852 C-139.43057456 12.74046524 -137.51207477 12.55863926 -134 13 C-131.00585938 14.35424805 -131.00585938 14.35424805 -127.84375 16.26171875 C-127.26789154 16.60454895 -126.69203308 16.94737915 -126.09872437 17.30059814 C-124.86544161 18.03698564 -123.63565005 18.77924643 -122.40911865 19.52682495 C-120.48256067 20.69810248 -118.54438192 21.84752919 -116.60205078 22.99243164 C-110.4996532 26.60358241 -104.48740426 30.30006383 -98.5859375 34.234375 C-97.61462891 34.86255127 -96.64332031 35.49072754 -95.64257812 36.13793945 C-93.84205918 37.30868973 -92.06512934 38.51682975 -90.31835938 39.76635742 C-87.80846501 41.37753961 -85.93088256 42.4313039 -83 43 C-78.83533493 41.75322365 -75.5687489 39.43256953 -72 37 C-70.07142063 35.88289311 -68.13366721 34.781489 -66.1875 33.6953125 C-64.12399725 32.50694784 -62.06153817 31.3167695 -60 30.125 C-58.88858643 29.48369141 -57.77717285 28.84238281 -56.63208008 28.18164062 C-50.65434322 24.72644017 -44.69653983 21.23936226 -38.76171875 17.7109375 C-38.16706818 17.35750275 -37.5724176 17.00406799 -36.95974731 16.6399231 C-34.11158237 14.94580007 -31.26613988 13.24739826 -28.42382812 11.54345703 C-25.29390659 9.67546032 -22.15035974 7.83329042 -19 6 C-18.43331604 5.66307129 -17.86663208 5.32614258 -17.28277588 4.97900391 C-15.55905879 3.95873336 -13.82060764 2.96348851 -12.08203125 1.96875 C-10.54832886 1.07833008 -10.54832886 1.07833008 -8.98364258 0.16992188 C-5.39509183 -1.23719172 -3.67261441 -1.06762402 0 0 Z " fill="#0F8F8A" transform="translate(532,115)"/>
<path d="M0 0 C2.49122488 2.21148188 4.94685315 4.45472749 7.38671875 6.72265625 C8.38445312 7.63917969 8.38445312 7.63917969 9.40234375 8.57421875 C15.7972376 14.68316206 21.07831787 21.6772328 26.38671875 28.72265625 C27.04124023 29.58600586 27.04124023 29.58600586 27.70898438 30.46679688 C48.09087079 57.5292409 60.25621897 88.55057667 66.38671875 121.72265625 C66.57435791 122.67140625 66.76199707 123.62015625 66.95532227 124.59765625 C68.75042453 134.61891249 68.74113574 144.57679185 68.69921875 154.72265625 C68.69648453 156.08926895 68.69648453 156.08926895 68.69369507 157.48348999 C68.64887423 170.76870737 68.26991349 183.7046804 65.38671875 196.72265625 C65.2151123 197.53283203 65.04350586 198.34300781 64.86669922 199.17773438 C53.331331 252.57648984 21.1150387 300.68909861 -24.53271484 330.99707031 C-55.7316577 351.01578215 -92.95592657 364.62443935 -130.2734375 364.9609375 C-131.17288589 364.97068604 -132.07233429 364.98043457 -132.9990387 364.99047852 C-151.88416961 365.15319808 -170.16737565 365.26876138 -188.61328125 360.72265625 C-189.4012207 360.5407373 -190.18916016 360.35881836 -191.00097656 360.17138672 C-209.11886179 355.93883691 -226.24426134 348.45858942 -242.61328125 339.72265625 C-244.36511719 338.80226563 -244.36511719 338.80226563 -246.15234375 337.86328125 C-269.02879109 325.36644094 -289.53472491 307.10548932 -305.61328125 286.72265625 C-306.36996094 285.81773437 -307.12664062 284.9128125 -307.90625 283.98046875 C-327.44873445 259.94289407 -339.92507783 230.61056749 -346.86328125 200.59765625 C-347.01450439 199.95481689 -347.16572754 199.31197754 -347.3215332 198.6496582 C-350.27643252 184.9997252 -350.96647681 171.20148765 -350.86328125 157.28515625 C-350.85984711 156.52029907 -350.85641296 155.75544189 -350.85287476 154.96740723 C-350.79416329 143.78979351 -350.62520968 132.74431274 -348.61328125 121.72265625 C-348.45730469 120.85350586 -348.30132812 119.98435547 -348.140625 119.08886719 C-338.10277418 64.97741582 -307.69031811 16.48097275 -262.61328125 -15.27734375 C-262.02901367 -15.69032715 -261.44474609 -16.10331055 -260.84277344 -16.52880859 C-237.41914575 -32.84339943 -210.53974248 -43.65263916 -182.61328125 -49.27734375 C-181.84242188 -49.43960449 -181.0715625 -49.60186523 -180.27734375 -49.76904297 C-116.42554467 -62.61630072 -48.57520781 -42.33086122 0 0 Z M-192.86328125 -23.21484375 C-193.90556885 -22.91739258 -194.94785645 -22.61994141 -196.02172852 -22.31347656 C-225.19481434 -13.64188409 -249.73157799 1.83557587 -271.61328125 22.72265625 C-272.46664062 23.52316406 -273.32 24.32367188 -274.19921875 25.1484375 C-289.69453811 40.08162383 -301.62147454 58.26530264 -310.61328125 77.72265625 C-311.14695312 78.8621875 -311.680625 80.00171875 -312.23046875 81.17578125 C-318.45509231 95.04411354 -323.00522448 109.74791968 -325.61328125 124.72265625 C-325.81824219 125.80933594 -326.02320313 126.89601563 -326.234375 128.015625 C-330.85889959 157.26175635 -327.30331039 186.6518284 -318.61328125 214.72265625 C-318.28336182 215.7887915 -318.28336182 215.7887915 -317.94677734 216.87646484 C-303.64964156 261.57289933 -268.92620916 300.27851625 -227.67358398 321.99780273 C-224.36092196 323.66646168 -221.00054324 325.21217327 -217.61328125 326.72265625 C-216.50509033 327.22490723 -216.50509033 327.22490723 -215.37451172 327.73730469 C-192.28024634 338.05632824 -167.51675784 343.15635 -142.23828125 342.97265625 C-141.56318512 342.96955444 -140.88808899 342.96645264 -140.1925354 342.96325684 C-129.86542917 342.90779129 -119.79396129 342.5499578 -109.61328125 340.72265625 C-108.57518311 340.53727295 -108.57518311 340.53727295 -107.51611328 340.34814453 C-58.37045398 331.2674796 -15.7280362 302.98591524 12.82421875 262.16015625 C27.06131966 241.27048242 37.09652924 218.4843441 42.38671875 193.72265625 C42.54897949 193.00271484 42.71124023 192.28277344 42.87841797 191.54101562 C53.13448988 144.33556596 40.75341492 93.87130498 15.30517578 53.58886719 C9.0787302 43.99339824 1.90575493 35.22360495 -5.80078125 26.78515625 C-6.26339355 26.27766846 -6.72600586 25.77018066 -7.20263672 25.24731445 C-34.45001971 -3.9271825 -72.62229544 -21.86747737 -111.61328125 -28.27734375 C-112.66523682 -28.45386475 -113.71719238 -28.63038574 -114.80102539 -28.81225586 C-119.23527715 -29.35322605 -123.5727904 -29.45802128 -128.03515625 -29.48046875 C-128.93461975 -29.48616882 -129.83408325 -29.4918689 -130.76080322 -29.4977417 C-132.66360311 -29.5071556 -134.56641904 -29.51371126 -136.46923828 -29.51757812 C-139.31313579 -29.52717454 -142.15627506 -29.55818635 -145 -29.58984375 C-161.41483625 -29.68645523 -177.05514643 -27.74417872 -192.86328125 -23.21484375 Z " fill="#FDFCFB" transform="translate(447.61328125,186.27734375)"/>
<path d="M0 0 C4.95198194 2.05405379 9.36746295 4.82309863 13.875 7.6875 C15.15852558 8.47531915 16.44371023 9.26044115 17.73046875 10.04296875 C20.30571414 11.61314872 22.87251944 13.19577409 25.43261719 14.79052734 C30.23867442 17.77835744 35.11772158 20.63902356 40 23.5 C41.73465617 24.52686893 43.46902381 25.55422539 45.203125 26.58203125 C49.70377636 29.24216321 54.21734235 31.87955634 58.734375 34.51171875 C60.07555038 35.29422019 61.41669624 36.07677224 62.7578125 36.859375 C64.74274246 38.01765366 66.72824823 39.1748736 68.71582031 40.32861328 C70.55693076 41.39735773 72.39583647 42.46980773 74.234375 43.54296875 C75.29881836 44.16196045 76.36326172 44.78095215 77.45996094 45.41870117 C80 47 80 47 82 49 C82.93087903 53.80860195 83.14518145 58.51546383 83.20532227 63.40405273 C83.21522186 64.107332 83.22512146 64.81061127 83.23532104 65.53520203 C83.26663411 67.83463297 83.29157252 70.1340845 83.31640625 72.43359375 C83.33700194 74.03785201 83.35799906 75.64210516 83.37937927 77.24635315 C83.4343301 81.44989868 83.48385733 85.65349097 83.53222656 89.8571167 C83.58263982 94.1541353 83.63822196 98.45108676 83.69335938 102.74804688 C83.80061037 111.16530766 83.90212744 119.58262496 84 128 C82.5839296 128.45095032 82.5839296 128.45095032 81.13925171 128.91101074 C78.10420228 129.9638528 76.19536542 131.10096295 73.6640625 133.03125 C59.62897525 142.91325479 59.62897525 142.91325479 50.70703125 141.453125 C46.59551054 140.46722175 42.66420012 139.14951923 38.68359375 137.734375 C33.58838088 135.94994188 29.17708703 135.70657787 23.80883789 135.96582031 C21 136 21 136 18.19506836 135.5234375 C14.18043194 134.86573287 10.28001346 134.81930157 6.21875 134.796875 C5.37640305 134.78986069 4.53405609 134.78284637 3.66618347 134.77561951 C0.944068 134.75811781 -1.77783024 134.75176223 -4.5 134.75 C-5.89042007 134.74898788 -5.89042007 134.74898788 -7.30892944 134.74795532 C-21.07269658 134.76391098 -34.4885089 135.1320608 -48 138 C-48.82580566 138.17160645 -49.65161133 138.34321289 -50.50244141 138.52001953 C-82.69315207 145.42199409 -112.16702804 159.21124767 -137.97265625 179.61328125 C-141.60098936 182.47381226 -145.29446615 185.24065981 -149 188 C-149.07420211 183.92497206 -149.1286257 179.85020608 -149.16479492 175.7746582 C-149.17987397 174.38852081 -149.2003405 173.00243106 -149.22631836 171.61645508 C-149.26273716 169.62341854 -149.27813018 167.63003277 -149.29296875 165.63671875 C-149.31653442 163.83787231 -149.31653442 163.83787231 -149.34057617 162.00268555 C-149 159 -149 159 -147.85253906 157.30957031 C-145.33053301 155.52675001 -142.74073229 153.95726542 -140.06640625 152.41015625 C-139.48042664 152.06910858 -138.89444702 151.72806091 -138.29071045 151.37667847 C-136.3837197 150.26773588 -134.47316641 149.1650953 -132.5625 148.0625 C-129.93108174 146.53593283 -127.30142119 145.00635156 -124.671875 143.4765625 C-124.01798294 143.096707 -123.36409088 142.7168515 -122.69038391 142.32548523 C-116.01268489 138.43992489 -109.39989635 134.44799219 -102.81665039 130.40454102 C-101.69504517 129.72282837 -101.69504517 129.72282837 -100.55078125 129.02734375 C-99.90794189 128.63281006 -99.26510254 128.23827637 -98.6027832 127.83178711 C-97 127 -97 127 -95 127 C-95.0199855 126.03613373 -95.03997101 125.07226746 -95.06056213 124.07919312 C-95.24316438 114.98683131 -95.37799274 105.89484226 -95.46630955 96.80106163 C-95.51324289 92.12587331 -95.5768726 87.45216718 -95.67895508 82.77783203 C-95.77689373 78.26489385 -95.83058665 73.75337898 -95.85389519 69.23945999 C-95.87049985 67.51929944 -95.90292864 65.79921518 -95.95157051 64.07966232 C-96.31655933 50.63981771 -96.31655933 50.63981771 -93.16322327 46.7122345 C-90.83461831 45.12825025 -88.6079954 44.04905419 -86 43 C-84.89954346 42.32831787 -83.79908691 41.65663574 -82.6652832 40.96459961 C-81.63749756 40.36655518 -80.60971191 39.76851074 -79.55078125 39.15234375 C-78.97962082 38.81881897 -78.40846039 38.48529419 -77.81999207 38.1416626 C-75.98560765 37.07110474 -74.14907393 36.00429642 -72.3125 34.9375 C-70.36657918 33.80315024 -68.42122654 32.66783053 -66.47592163 31.53242493 C-65.17371294 30.77242232 -63.87132492 30.01272689 -62.5687561 29.25334167 C-56.86286119 25.9254553 -51.17998538 22.5593916 -45.5 19.1875 C-10.51524638 -1.54601099 -10.51524638 -1.54601099 0 0 Z " fill="#26AE9B" transform="translate(313,0)"/>
<path d="M0 0 C0.94445274 -0.00397441 1.88890548 -0.00794881 2.86197799 -0.01204365 C6.04045559 -0.02170158 9.21849198 -0.00982737 12.3969574 0.00190735 C14.66998969 -0.00051944 16.94302092 -0.00423766 19.21604919 -0.00915527 C25.39974962 -0.01858274 31.58329228 -0.00912348 37.76698041 0.00417686 C44.22696799 0.01546723 50.68694753 0.01138575 57.14694214 0.00942993 C67.99577274 0.00854625 78.84453156 0.01957279 89.69334412 0.03804016 C100.86328516 0.05704926 112.03315368 0.0641267 123.20310974 0.05854797 C136.65411115 0.05184989 150.10505862 0.05512795 163.55605888 0.06765175 C168.69838494 0.07230708 173.84069128 0.07316757 178.98301888 0.0710659 C185.03304181 0.06918815 191.08297113 0.07724723 197.13297272 0.0931263 C199.35907288 0.09738417 201.58518251 0.09820968 203.81128502 0.0954361 C206.83864968 0.09223529 209.86573091 0.10124275 212.89306641 0.11352539 C213.78400342 0.10974607 214.67494043 0.10596674 215.59287554 0.10207289 C221.65471246 0.14589288 221.65471246 0.14589288 223.88304138 2.3742218 C224.58584595 4.6690979 224.58584595 4.6690979 225.2275238 7.570755 C225.59251228 9.19803276 225.59251228 9.19803276 225.96487427 10.85818481 C226.2201741 12.03523483 226.47547394 13.21228485 226.73851013 14.42500305 C227.00440445 15.63109726 227.27029877 16.83719147 227.54425049 18.07983398 C228.2490447 21.29068137 228.94623629 24.50307744 229.6414032 27.71601868 C230.06937305 29.68135656 230.50409232 31.64507087 230.94139099 33.60835266 C231.7799919 37.37837348 232.6049596 41.15112567 233.42601013 44.92500305 C233.68738266 46.09598038 233.94875519 47.2669577 234.2180481 48.47341919 C234.45191727 49.56772751 234.68578644 50.66203583 234.92674255 51.789505 C235.13610947 52.74943863 235.34547638 53.70937225 235.56118774 54.69839478 C235.90366142 57.54565268 235.65624291 59.6238874 234.88304138 62.3742218 C232.9832705 64.27399269 230.19365073 63.49434823 227.66633606 63.49864197 C226.77226044 63.49504669 225.87818481 63.49145142 224.95701599 63.48774719 C224.02052719 63.48789322 223.08403839 63.48803925 222.11917114 63.4881897 C219.00788599 63.48749017 215.89665989 63.47969595 212.78538513 63.47187805 C210.63447095 63.47001401 208.48355635 63.46859004 206.3326416 63.46759033 C200.6592238 63.46376405 194.98583143 63.45393282 189.31242371 63.44288635 C182.51180802 63.43088058 175.71118385 63.42627052 168.91056061 63.42043304 C158.5680365 63.41072113 148.22556821 63.39156533 137.88304138 63.3742218 C137.88304138 90.4342218 137.88304138 117.4942218 137.88304138 145.3742218 C129.97425592 149.32861453 117.68095955 147.52728759 108.95921326 147.5045929 C106.51969647 147.49924734 104.08036499 147.50455954 101.64085388 147.51094055 C100.04710349 147.51027934 98.4533532 147.50899728 96.85960388 147.5070343 C95.79801559 147.51007065 95.79801559 147.51007065 94.71498108 147.51316833 C88.03086194 147.48325214 81.6108562 146.89174602 74.88304138 146.3742218 C74.88304138 118.9842218 74.88304138 91.5942218 74.88304138 63.3742218 C64.52284607 63.40902649 64.52284607 63.40902649 53.95335388 63.4445343 C49.58746473 63.45474887 45.22159023 63.46437648 40.85569763 63.47187805 C33.92028254 63.48385092 26.98492006 63.49804083 20.04954529 63.52510071 C14.46044715 63.54677225 8.87140542 63.55877839 3.28226852 63.56397629 C1.14594001 63.5676823 -0.99038529 63.57491881 -3.12668991 63.58568192 C-6.11033134 63.60012124 -9.09373731 63.60220292 -12.07740784 63.60127258 C-12.96788818 63.60846313 -13.85836853 63.61565369 -14.77583313 63.62306213 C-20.8888543 63.60232612 -20.8888543 63.60232612 -23.11695862 61.3742218 C-23.30758678 54.26744443 -21.36671591 46.92694176 -19.93727112 40.00312805 C-19.72384064 38.95898239 -19.51041016 37.91483673 -19.29051208 36.83905029 C-18.84103772 34.651071 -18.38878045 32.46366171 -17.93385315 30.27680969 C-17.23937549 26.92425189 -16.56269236 23.56839772 -15.88648987 20.21211243 C-15.44616629 18.07972712 -15.00479719 15.94755737 -14.56227112 13.81562805 C-14.36215424 12.81254105 -14.16203735 11.80945404 -13.95585632 10.77597046 C-13.75910309 9.84747787 -13.56234985 8.91898529 -13.3596344 7.96235657 C-13.10767807 6.73852013 -13.10767807 6.73852013 -12.85063171 5.48995972 C-10.68669613 -0.75031348 -5.75180691 -0.0477272 0 0 Z " fill="#FEFDFB" transform="translate(200.11695861816406,223.6257781982422)"/>
<path d="M0 0 C0.33 0.66 0.66 1.32 1 2 C0.0625 4.125 0.0625 4.125 -1 6 C-0.12037598 6.26699707 0.75924805 6.53399414 1.66552734 6.80908203 C4.86583547 7.95208269 7.45696072 9.29063372 10.3515625 11.0546875 C11.36992188 11.67085938 12.38828125 12.28703125 13.4375 12.921875 C15.0153125 13.88867188 15.0153125 13.88867188 16.625 14.875 C18.67956213 16.12260232 20.73425431 17.36999049 22.7890625 18.6171875 C23.88484619 19.3405127 24.98062988 20.06383789 26.10961914 20.80908203 C29.0633519 22.63874235 31.90687562 23.63627293 35.23217773 24.62451172 C41.51503599 26.82411711 46.39483411 29.21029432 50 35 C54.06892432 47.87448595 52.34990472 62.98286882 51.89788818 76.2677002 C51.78392473 80.41486197 51.7783203 84.55913061 51.77542591 88.70763206 C51.765199 92.70795356 51.70715565 96.70638376 51.63266563 100.70598221 C51.59909218 102.61555524 51.57571561 104.52533661 51.56287575 106.43516159 C51.40196117 121.22253777 51.40196117 121.22253777 48.10974121 125.39654541 C45.79032276 126.97374264 43.6142424 128.0022952 41 129 C39.93507324 129.66644531 38.87014648 130.33289063 37.77294922 131.01953125 C36.79342285 131.61121094 35.81389648 132.20289063 34.8046875 132.8125 C33.68860107 133.48821045 32.57251465 134.1639209 31.42260742 134.86010742 C30.24007795 135.57341546 29.05754199 136.28671273 27.875 137 C26.63047813 137.75278446 25.38609553 138.50579919 24.1418457 139.2590332 C21.62542758 140.78228386 19.10853208 142.30474082 16.59130859 143.82666016 C11.45023183 146.93630529 6.31891593 150.06194834 1.1875 153.1875 C0.27299072 153.74332764 -0.64151855 154.29915527 -1.58374023 154.87182617 C-6.53194464 157.88037984 -11.47027458 160.90402535 -16.3984375 163.9453125 C-17.4505542 164.59218018 -18.5026709 165.23904785 -19.58666992 165.90551758 C-21.60771715 167.14844332 -23.62624306 168.39548108 -25.6418457 169.6472168 C-26.54765381 170.20320557 -27.45346191 170.75919434 -28.38671875 171.33203125 C-29.58107544 172.07030151 -29.58107544 172.07030151 -30.79956055 172.82348633 C-32.93673274 173.96617276 -34.59785939 174.69899846 -37 175 C-39.3630683 173.78745445 -41.43288192 172.53793174 -43.625 171.0625 C-45.06665096 170.12727428 -46.50944165 169.19380405 -47.953125 168.26171875 C-49.15291992 167.48127197 -49.15291992 167.48127197 -50.37695312 166.68505859 C-55.3281882 163.50436011 -60.35743453 160.44953445 -65.375 157.375 C-67.6185981 155.99496808 -69.86208592 154.61475685 -72.10546875 153.234375 C-76.13444821 150.75718073 -80.16663775 148.28532081 -84.20230103 145.81903076 C-106.30850252 132.30753252 -106.30850252 132.30753252 -115.6394043 125.91650391 C-121.01857407 122.23752869 -123.62723447 120.65513418 -130.25 121.375 C-131.32765625 121.48585938 -132.4053125 121.59671875 -133.515625 121.7109375 C-134.33546875 121.80632812 -135.1553125 121.90171875 -136 122 C-133.35788866 120.23859244 -131.41243834 119.34209653 -128.45703125 118.3359375 C-127.55573486 118.02253418 -126.65443848 117.70913086 -125.72583008 117.38623047 C-124.28373169 116.88567139 -124.28373169 116.88567139 -122.8125 116.375 C-113.10936359 112.92798951 -104.05901962 108.87087894 -95 104 C-94.00871094 103.48695313 -93.01742187 102.97390625 -91.99609375 102.4453125 C-49.74944543 80.21023444 -20.23246798 42.38169608 0 0 Z " fill="#046F6E" transform="translate(501,422)"/>
<path d="M0 0 C2.82403526 3.4285688 4.6565253 7.20891064 6.5625 11.1875 C13.40059727 25.09611932 21.09192642 38.05562662 31 50 C31.47727539 50.57878906 31.95455078 51.15757812 32.44628906 51.75390625 C42.01640013 63.30038553 52.11149404 73.79253598 64 83 C64.55816406 83.4345752 65.11632812 83.86915039 65.69140625 84.31689453 C78.57838919 94.28306403 92.38568722 101.87552252 107 109 C106.67 115.6 106.34 122.2 106 129 C107.98 128.01 109.96 127.02 112 126 C112.66 126.33 113.32 126.66 114 127 C112.02 129.31 110.04 131.62 108 134 C107.67 133.01 107.34 132.02 107 131 C97.40277116 136.28861378 88.11376471 142.01160155 78.84106445 147.84667969 C69.28915406 153.84696282 59.6549836 159.70584129 50.00146484 165.54077148 C49.42273117 165.89080231 48.8439975 166.24083313 48.24772644 166.60147095 C46.67565824 167.55195048 45.10286846 168.50123625 43.5300293 169.45043945 C41.66213034 170.59446673 39.82252159 171.78498561 38 173 C33.70963043 172.69331143 30.74147032 171.55728164 27.12109375 169.296875 C25.75633911 168.45503662 25.75633911 168.45503662 24.36401367 167.59619141 C23.39826416 166.98694824 22.43251465 166.37770508 21.4375 165.75 C20.41954346 165.11884277 19.40158691 164.48768555 18.3527832 163.83740234 C16.24629157 162.53017252 14.14237737 161.21878055 12.04101562 159.90332031 C8.43705066 157.64765951 4.82053819 155.41280345 1.20288086 153.17919922 C-1.3498657 151.60191254 -3.89971259 150.02001815 -6.44921875 148.4375 C-10.52945136 145.90735393 -14.61636763 143.38823607 -18.70703125 140.875 C-19.56869652 140.34548233 -19.56869652 140.34548233 -20.44776917 139.80526733 C-23.25005267 138.08340449 -26.0529446 136.36254973 -28.85668945 134.64306641 C-48.30193593 122.69806407 -48.30193593 122.69806407 -50 121 C-50.14837445 118.29908048 -50.23169679 115.62275457 -50.2722168 112.91943359 C-50.28842575 112.07221741 -50.3046347 111.22500122 -50.32133484 110.35211182 C-50.46173067 102.52186118 -50.53968135 94.6904643 -50.60025311 86.85922813 C-50.64122643 81.59549665 -50.7015735 76.33362529 -50.80932617 71.07080078 C-50.91309075 65.98605266 -50.96765864 60.90296367 -50.98771095 55.81721878 C-51.00364359 53.88018579 -51.03687307 51.94321358 -51.08786583 50.00678635 C-51.46834664 34.82844005 -51.46834664 34.82844005 -47.8197937 30.28512573 C-45.26643425 28.46918433 -42.88633943 27.19703704 -40 26 C-38.92234375 25.34773438 -37.8446875 24.69546875 -36.734375 24.0234375 C-35.74953125 23.47945313 -34.7646875 22.93546875 -33.75 22.375 C-27.2147074 18.71901104 -20.75806102 14.9367895 -14.3125 11.125 C-13.34344727 10.55313965 -12.37439453 9.9812793 -11.37597656 9.39208984 C-4.3355282 5.88695716 -4.3355282 5.88695716 0 0 Z " fill="#11908C" transform="translate(112,423)"/>
<path d="M0 0 C1.11921334 3.35764001 0.93542832 3.85347499 -0.2578125 7.0078125 C-0.55155762 7.81742432 -0.84530273 8.62703613 -1.14794922 9.46118164 C-1.47037598 10.3402417 -1.79280273 11.21930176 -2.125 12.125 C-5.00130644 20.33899803 -7.18410844 28.52562251 -8.875 37.0625 C-9.07754395 38.07135254 -9.28008789 39.08020508 -9.48876953 40.11962891 C-11.86998462 52.65028534 -12.23990705 65.15702343 -12.25 77.875 C-12.25067474 78.64490265 -12.25134949 79.4148053 -12.25204468 80.20803833 C-12.21893881 104.10088268 -8.59252011 127.10479884 0.12036133 149.4465332 C3.00299584 157.02019832 3.00299584 157.02019832 2 161 C-0.73898171 163.44984303 -3.81011422 165.19757989 -7 167 C-7.72123047 167.42684082 -8.44246094 167.85368164 -9.18554688 168.29345703 C-11.3611681 169.57296785 -13.55306413 170.81998233 -15.75 172.0625 C-24.05457003 176.79781133 -32.18007122 181.78485531 -40.23339844 186.93579102 C-41.07418945 187.46615967 -41.91498047 187.99652832 -42.78125 188.54296875 C-43.52439453 189.01758545 -44.26753906 189.49220215 -45.03320312 189.98120117 C-47 191 -47 191 -50 191 C-52.45974533 189.71098426 -54.81447919 188.37251666 -57.1875 186.9375 C-57.92218506 186.49921875 -58.65687012 186.0609375 -59.41381836 185.609375 C-69.08273871 179.80543884 -78.61999803 173.78476653 -88.16503906 167.78027344 C-90.79112114 166.13116988 -93.42148827 164.48927111 -96.0546875 162.8515625 C-96.80355225 162.38556641 -97.55241699 161.91957031 -98.32397461 161.43945312 C-99.69666067 160.5857461 -101.06984239 159.73283536 -102.44360352 158.88085938 C-106.88862345 156.11137655 -106.88862345 156.11137655 -108 155 C-108.14315184 152.17162169 -108.22112185 149.36685666 -108.25634766 146.53637695 C-108.27095032 145.64854019 -108.28555298 144.76070343 -108.30059814 143.84596252 C-108.42668985 135.64549528 -108.49535245 127.44404441 -108.54844093 119.24281025 C-108.58421843 113.72927078 -108.63754796 108.21718846 -108.73388672 102.7043457 C-108.82666557 97.37974443 -108.87535535 92.05643337 -108.89283371 86.73106956 C-108.90693797 84.7011571 -108.9366005 82.67129066 -108.98213577 80.64183998 C-109.32127344 64.74926918 -109.32127344 64.74926918 -106.11238098 60.50093079 C-103.77945261 58.91636957 -101.65257012 57.93187933 -99 57 C-98.0917749 56.42967041 -97.1835498 55.85934082 -96.24780273 55.27172852 C-95.10226929 54.58228149 -95.10226929 54.58228149 -93.93359375 53.87890625 C-93.04712158 53.34305908 -92.16064941 52.80721191 -91.24731445 52.25512695 C-90.32007568 51.69656006 -89.39283691 51.13799316 -88.4375 50.5625 C-79.86095951 45.36782055 -71.31912403 40.12094997 -62.8125 34.8125 C-61.79148193 34.17707275 -60.77046387 33.54164551 -59.71850586 32.88696289 C-58.76596924 32.29133545 -57.81343262 31.69570801 -56.83203125 31.08203125 C-55.99389893 30.55843018 -55.1557666 30.0348291 -54.29223633 29.49536133 C-51.9929213 28.03554035 -51.9929213 28.03554035 -49.89453125 26.39331055 C-47.73947139 24.80839732 -45.48224756 23.88203758 -43.01708984 22.87109375 C-39.00612478 21.13893164 -35.17402822 19.03861897 -31.3125 17 C-30.40927002 16.52522217 -29.50604004 16.05044434 -28.57543945 15.5612793 C-18.98230566 10.49830573 -9.48087761 5.26955034 0 0 Z " fill="#27AF9C" transform="translate(110,265)"/>
<path d="M0 0 C0.391875 0.45375 0.78375 0.9075 1.1875 1.375 C2.90129643 3.10218411 2.90129643 3.10218411 5.09375 3.8203125 C9.0112882 5.41049602 12.62491993 7.43968789 16.3125 9.5 C17.09415527 9.93634766 17.87581055 10.37269531 18.68115234 10.82226562 C24.22612767 13.94487409 29.70593454 17.16367415 35.125 20.5 C35.81762939 20.92087891 36.51025879 21.34175781 37.22387695 21.77539062 C38.85270985 22.79364554 40.43256492 23.88955553 42 25 C42 25.66 42 26.32 42 27 C42.88381348 26.94158936 43.76762695 26.88317871 44.67822266 26.82299805 C48.42591623 27.02269508 50.02155471 27.82088112 53.1484375 29.83203125 C54.6344043 30.76958252 54.6344043 30.76958252 56.15039062 31.72607422 C57.21451172 32.41459473 58.27863281 33.10311523 59.375 33.8125 C61.68319473 35.27232958 63.99291623 36.72946181 66.3046875 38.18359375 C66.91233948 38.5675531 67.51999146 38.95151245 68.14605713 39.34710693 C76.53667771 44.63093236 85.10499452 49.62102404 93.65545654 54.64028931 C95.67796648 55.82812516 97.69843182 57.01937902 99.71875 58.2109375 C100.32590851 58.56547501 100.93306702 58.92001251 101.55862427 59.28529358 C103.97192837 60.71008855 106.00870723 62.00870723 108 64 C108.23557172 66.91912656 108.34606127 69.74594627 108.36987305 72.66894531 C108.38462173 73.56668167 108.39937042 74.46441803 108.41456604 75.38935852 C108.4591945 78.36893562 108.48734124 81.3483164 108.51171875 84.328125 C108.52111795 85.34483025 108.53051716 86.36153549 108.54020119 87.40904999 C108.58781292 92.79107292 108.62148065 98.17299768 108.64526367 103.55517578 C108.67297291 109.11559843 108.75213547 114.67405306 108.84280682 120.2337532 C108.90260842 124.50776058 108.92252873 128.78129901 108.93177223 133.05568695 C108.94336253 135.10511253 108.97023273 137.15451106 109.01270103 139.20352936 C109.32477957 155.21070933 109.32477957 155.21070933 106.16123962 159.48348999 C103.81742004 161.08198945 101.6659349 162.05274844 99 163 C97.88906982 163.67691895 96.77813965 164.35383789 95.63354492 165.05126953 C94.59302979 165.65567871 93.55251465 166.26008789 92.48046875 166.8828125 C91.90297882 167.21957001 91.32548889 167.55632751 90.73049927 167.90328979 C89.50970643 168.61492284 88.28822158 169.32536998 87.06607056 170.03466797 C83.86097864 171.89491983 80.66105783 173.7640252 77.4609375 175.6328125 C76.82559586 176.00359924 76.19025421 176.37438599 75.53565979 176.75640869 C68.92818109 180.61719226 62.36580918 184.55192647 55.81518555 188.50830078 C55.06793213 188.95931152 54.32067871 189.41032227 53.55078125 189.875 C52.90794189 190.26429688 52.26510254 190.65359375 51.6027832 191.0546875 C50.42721096 191.74803338 49.22072064 192.38963968 48 193 C46.16259766 192.20239258 46.16259766 192.20239258 43.9140625 190.89453125 C43.07520508 190.41121338 42.23634766 189.92789551 41.37207031 189.42993164 C40.46553711 188.8961792 39.55900391 188.36242676 38.625 187.8125 C37.69268555 187.27165771 36.76037109 186.73081543 35.79980469 186.17358398 C28.43711276 181.88694098 21.12161784 177.51910548 13.83837891 173.09887695 C8.62508789 169.93988781 3.34907496 166.92323927 -2 164 C-0.78207597 157.05181288 1.03841331 150.54318917 3.3125 143.875 C5.98908799 135.75129605 8.14139267 127.62594373 9.875 119.25 C10.07778564 118.27530762 10.28057129 117.30061523 10.48950195 116.29638672 C17.53731919 80.84114715 14.87031992 38.82072835 0.90087891 5.36791992 C0 3 0 3 0 0 Z " fill="#0A8582" transform="translate(502,264)"/>
<path d="M0 0 C0 3.63 0 7.26 0 11 C-0.95551758 11.12528076 -1.91103516 11.25056152 -2.89550781 11.37963867 C-39.81897176 14.40133339 -39.81897176 14.40133339 -72 30 C-73.08395602 33.41239564 -73.08395602 33.41239564 -72 37 C-58.03882802 53.72093853 -21.00326391 54.95377357 -0.87414551 56.81414795 C11.86074767 57.91687817 24.50169846 58.31120248 37.28173828 58.26074219 C40.49921491 58.25000262 43.71613354 58.26073378 46.93359375 58.2734375 C65.81507518 58.28680514 84.65293428 57.18207191 103.3125 54.1875 C104.9214917 53.93311157 104.9214917 53.93311157 106.56298828 53.67358398 C131.89263014 49.92780849 131.89263014 49.92780849 153 37 C154.40542699 34.07088857 154.40542699 34.07088857 154 31 C140.54984513 14.8799642 106.5281217 14.36080336 87.27636719 12.30957031 C85 12 85 12 81 11 C81 7.37 81 3.74 81 0 C111.46165133 1.73696225 153.56963579 5.68536742 177 28 C179.84642865 31.51059533 180.55699394 34.47868233 180.3359375 39.02734375 C179.1636409 45.91117844 172.39100117 51.15547906 167 55 C140.17016994 70.91574783 102.72298965 77.16118966 72 77 C72.00444122 78.15844925 72.00888245 79.3168985 72.01345825 80.51045227 C72.05395685 91.41416933 72.08396155 102.31787118 72.10362434 113.22164631 C72.11407291 118.82772767 72.12825169 124.43374844 72.15087891 130.03979492 C72.17256901 135.44734991 72.18456054 140.85484652 72.18975449 146.26244164 C72.19345714 148.32816678 72.20068724 150.39388863 72.21146011 152.459589 C72.22592406 155.34723505 72.22798008 158.23463816 72.22705078 161.12231445 C72.23424133 161.98114731 72.24143188 162.83998016 72.24884033 163.72483826 C72.22810432 169.65784352 72.22810432 169.65784352 70 173 C66.96115675 174.01294775 64.85575242 174.14431936 61.67407227 174.17700195 C60.58606827 174.18983719 59.49806427 174.20267242 58.37709045 174.21589661 C56.61455177 174.22697701 56.61455177 174.22697701 54.81640625 174.23828125 C53.00582985 174.25038887 53.00582985 174.25038887 51.15867615 174.26274109 C48.60408972 174.27657766 46.04948484 174.28730172 43.49487305 174.29516602 C39.58151531 174.31241618 35.66899413 174.35631215 31.75585938 174.40039062 C29.27604789 174.41051418 26.79622921 174.41903134 24.31640625 174.42578125 C23.14340469 174.44328934 21.97040314 174.46079742 20.76185608 174.47883606 C19.67069992 174.47591049 18.57954376 174.47298492 17.45532227 174.4699707 C16.49618423 174.47583694 15.5370462 174.48170319 14.54884338 174.48774719 C12 174 12 174 9.68742371 172.53257751 C7.17564221 168.76275888 7.47130385 165.44489475 7.54589844 161.00878906 C7.54531433 160.10112289 7.54473022 159.19345673 7.54412842 158.25828552 C7.54691351 155.26034199 7.5780258 152.26339468 7.609375 149.265625 C7.61683587 147.18626448 7.62252953 145.10689692 7.62652588 143.02752686 C7.64179425 137.55617846 7.68108674 132.0852552 7.7253418 126.61407471 C7.76626837 121.03053539 7.78453133 115.44692734 7.8046875 109.86328125 C7.84757957 98.90866744 7.91584571 87.95436908 8 77 C7.3826105 77.00245853 6.765221 77.00491707 6.12912273 77.0074501 C5.3189309 77.0093623 4.50873907 77.01127449 3.67399597 77.01324463 C2.87098147 77.01570316 2.06796698 77.0181617 1.24061871 77.02069473 C-1.25029953 76.99768819 -3.66652011 76.8032426 -6.13671875 76.484375 C-7.03213379 76.36989014 -7.92754883 76.25540527 -8.85009766 76.13745117 C-9.78644043 76.00959229 -10.7227832 75.8817334 -11.6875 75.75 C-12.68571777 75.61505127 -13.68393555 75.48010254 -14.71240234 75.34106445 C-78.73510535 66.45321871 -78.73510535 66.45321871 -96.234375 46.4453125 C-99.19777749 42.34113117 -99.42117013 38.96980759 -99 34 C-92.62583057 21.25166114 -78.02628038 15.69186251 -65.29296875 11.3359375 C-44.61852511 4.66750646 -21.8259726 -0.68206164 0 0 Z " fill="#FDFCFB" transform="translate(266,324)"/>
<path d="M0 0 C6.69460899 0 7.98784775 0.06906607 13.25390625 3.26171875 C13.82753403 3.60350662 14.4011618 3.94529449 14.99217224 4.29743958 C16.85781237 5.41342225 18.70978072 6.55022015 20.5625 7.6875 C21.86953061 8.47417365 23.17748531 9.25931388 24.48632812 10.04296875 C27.11279861 11.61807315 29.73446643 13.2007006 32.35205078 14.79052734 C37.20876019 17.73775047 42.1039746 20.6187292 47 23.5 C48.73444199 24.52723065 50.46881517 25.55457749 52.203125 26.58203125 C56.70377636 29.24216321 61.21734235 31.87955634 65.734375 34.51171875 C67.07555038 35.29422019 68.41669624 36.07677224 69.7578125 36.859375 C71.74274246 38.01765366 73.72824823 39.1748736 75.71582031 40.32861328 C77.55693076 41.39735773 79.39583647 42.46980773 81.234375 43.54296875 C82.83104004 44.4714563 82.83104004 44.4714563 84.45996094 45.41870117 C87 47 87 47 89 49 C89.93087903 53.80860195 90.14518145 58.51546383 90.20532227 63.40405273 C90.21522186 64.107332 90.22512146 64.81061127 90.23532104 65.53520203 C90.26663411 67.83463297 90.29157252 70.1340845 90.31640625 72.43359375 C90.33700194 74.03785201 90.35799906 75.64210516 90.37937927 77.24635315 C90.4343301 81.44989868 90.48385733 85.65349097 90.53222656 89.8571167 C90.58263982 94.1541353 90.63822196 98.45108676 90.69335938 102.74804688 C90.80061037 111.16530766 90.90212744 119.58262496 91 128 C90.05595306 128.30063354 89.11190613 128.60126709 88.13925171 128.91101074 C85.10420228 129.9638528 83.19536542 131.10096295 80.6640625 133.03125 C66.62897525 142.91325479 66.62897525 142.91325479 57.70703125 141.453125 C53.59551054 140.46722175 49.66420012 139.14951923 45.68359375 137.734375 C40.58838088 135.94994188 36.17708703 135.70657787 30.80883789 135.96582031 C28 136 28 136 25.2434082 135.53051758 C20.97133731 134.83174377 16.76753461 134.76701987 12.4453125 134.68359375 C11.09299026 134.6524221 11.09299026 134.6524221 9.71334839 134.62062073 C6.8506386 134.5555542 3.98784181 134.49644086 1.125 134.4375 C-0.82292544 134.39427393 -2.77084229 134.35065836 -4.71875 134.30664062 C-9.47907889 134.19991711 -14.23949476 134.09853036 -19 134 C-19 133.67 -19 133.34 -19 133 C-12.46861401 132.01413042 -6.77354143 132 0 132 C0 118.14 0 104.28 0 90 C-3.63 90 -7.26 90 -11 90 C-11 82.08 -11 74.16 -11 66 C-7.37 66 -3.74 66 0 66 C0 44.22 0 22.44 0 0 Z " fill="#0FA498" transform="translate(306,0)"/>
<path d="M0 0 C0.66 0.33 1.32 0.66 2 1 C2 26.74 2 52.48 2 79 C20.03262037 91.01461763 20.03262037 91.01461763 30 92 C27.49176774 93.67215484 25.92036028 94.46463144 23.140625 95.33984375 C-1.19356299 103.26978619 -22.91477046 114.75543598 -42.97265625 130.61328125 C-46.60098936 133.47381226 -50.29446615 136.24065981 -54 139 C-54.07420211 134.92497206 -54.1286257 130.85020608 -54.16479492 126.7746582 C-54.17987397 125.38852081 -54.2003405 124.00243106 -54.22631836 122.61645508 C-54.26273716 120.62341854 -54.27813018 118.63003277 -54.29296875 116.63671875 C-54.31653442 114.83787231 -54.31653442 114.83787231 -54.34057617 113.00268555 C-54 110 -54 110 -52.85253906 108.30957031 C-50.33053301 106.52675001 -47.74073229 104.95726542 -45.06640625 103.41015625 C-44.48042664 103.06910858 -43.89444702 102.72806091 -43.29071045 102.37667847 C-41.3837197 101.26773588 -39.47316641 100.1650953 -37.5625 99.0625 C-34.93108174 97.53593283 -32.30142119 96.00635156 -29.671875 94.4765625 C-29.01798294 94.096707 -28.36409088 93.7168515 -27.69038391 93.32548523 C-21.01268489 89.43992489 -14.39989635 85.44799219 -7.81665039 81.40454102 C-7.06891357 80.95006592 -6.32117676 80.49559082 -5.55078125 80.02734375 C-4.90794189 79.63281006 -4.26510254 79.23827637 -3.6027832 78.83178711 C-2 78 -2 78 0 78 C0 52.26 0 26.52 0 0 Z " fill="#11918B" transform="translate(218,49)"/>
<path d="M0 0 C2.99414062 1.35424805 2.99414062 1.35424805 6.15625 3.26171875 C7.02078545 3.77358482 7.02078545 3.77358482 7.90278625 4.29579163 C10.42655861 5.79657802 12.92661379 7.33492344 15.42782593 8.8729248 C17.38080378 10.07365473 19.33605837 11.27053417 21.29296875 12.46484375 C21.94166428 12.86220734 22.5903598 13.25957092 23.25871277 13.66897583 C27.3280356 16.11978578 31.41460685 18.15309278 35.80078125 20.00390625 C47.59962467 25.22573564 47.59962467 25.22573564 51 30 C53.54405816 39.42238733 52.35634698 49.45909489 51 59 C47.62185695 57.02295796 44.57813268 54.92329585 41.55102539 52.43554688 C12.19416994 28.38558984 -22.98191934 14.95465174 -60 8 C-60 7.67 -60 7.34 -60 7 C-53.35357123 6.69540456 -47.61475715 7.80482376 -41.1875 9.4375 C-40.24712891 9.66759766 -39.30675781 9.89769531 -38.33789062 10.13476562 C-34.84680792 10.99568309 -31.41241323 11.86252892 -28 13 C-25.6200079 11.92070538 -25.6200079 11.92070538 -23.10546875 10.25390625 C-22.14962891 9.66416016 -21.19378906 9.07441406 -20.20898438 8.46679688 C-18.20480913 7.20366122 -16.20218584 5.93805957 -14.20117188 4.66992188 C-13.24146484 4.07888672 -12.28175781 3.48785156 -11.29296875 2.87890625 C-10.4218042 2.3279126 -9.55063965 1.77691895 -8.65307617 1.20922852 C-5.43057456 -0.25953476 -3.51207477 -0.44136074 0 0 Z " fill="#0A7A78" transform="translate(398,128)"/>
<path d="M0 0 C1.12210528 3.36631585 0.92298127 3.90032715 -0.2578125 7.078125 C-0.55163818 7.89901611 -0.84546387 8.71990723 -1.14819336 9.56567383 C-1.47053955 10.45150146 -1.79288574 11.3373291 -2.125 12.25 C-6.11693682 23.63158702 -8.68690151 35.17803771 -11 47 C-11.33 47 -11.66 47 -12 47 C-12 45.35 -12 43.7 -12 42 C-12.71623535 41.73791748 -13.4324707 41.47583496 -14.17041016 41.20581055 C-17.11189766 39.95231557 -19.5970174 38.45291114 -22.2734375 36.70703125 C-23.7584375 35.7624707 -23.7584375 35.7624707 -25.2734375 34.79882812 C-27.34096179 33.47472724 -29.40092651 32.1387475 -31.453125 30.79101562 C-37.37280569 26.7542141 -37.37280569 26.7542141 -44.2265625 26.07421875 C-45.14179687 26.37972656 -46.05703125 26.68523437 -47 27 C-44.2996546 24.09279824 -41.81761323 22.15709696 -38.28125 20.37109375 C-37.35771729 19.89833008 -36.43418457 19.42556641 -35.48266602 18.93847656 C-34.00624634 18.19549316 -34.00624634 18.19549316 -32.5 17.4375 C-30.43521268 16.38082925 -28.37143053 15.32219231 -26.30859375 14.26171875 C-25.26300293 13.72466309 -24.21741211 13.18760742 -23.14013672 12.63427734 C-18.23834622 10.08315111 -13.39727905 7.42545027 -8.5625 4.75 C-7.69882813 4.27232178 -6.83515625 3.79464355 -5.9453125 3.30249023 C-3.96235906 2.20376634 -1.98048945 1.10315728 0 0 Z " fill="#0D8F8B" transform="translate(110,265)"/>
<path d="M0 0 C0.391875 0.45375 0.78375 0.9075 1.1875 1.375 C2.90129643 3.10218411 2.90129643 3.10218411 5.09375 3.8203125 C9.01138731 5.41053625 12.62452087 7.4402538 16.3125 9.5 C17.09415527 9.93489746 17.87581055 10.36979492 18.68115234 10.81787109 C26.62267947 15.278882 34.33080957 20.08921049 42 25 C37.60179161 28.75717397 32.81773438 31.65777262 27.875 34.625 C26.26794141 35.59587801 24.66115912 36.56721355 23.0546875 37.5390625 C22.34812012 37.96396973 21.64155273 38.38887695 20.91357422 38.82666016 C19.25142042 39.84583739 17.62227991 40.91848006 16 42 C15.01 42 14.02 42 13 42 C13 43.98 13 45.96 13 48 C11.40368406 45.08902178 10.55371787 42.46448509 9.921875 39.2109375 C9.73326904 38.27733398 9.54466309 37.34373047 9.3503418 36.38183594 C9.152229 35.38958008 8.95411621 34.39732422 8.75 33.375 C6.99043433 24.8595378 4.81470886 16.68277779 1.87988281 8.49755859 C0.81427062 5.52126593 0 3.19010568 0 0 Z " fill="#04706F" transform="translate(502,264)"/>
<path d="M0 0 C7.59 0 15.18 0 23 0 C23 7.92 23 15.84 23 24 C15.41 24 7.82 24 0 24 C0 16.08 0 8.16 0 0 Z " fill="#068C83" transform="translate(295,66)"/>
<path d="M0 0 C7.26 0 14.52 0 22 0 C22 7.92 22 15.84 22 24 C14.74 24 7.48 24 0 24 C0 16.08 0 8.16 0 0 Z " fill="#047574" transform="translate(516,183)"/>
<path d="M0 0 C7.26 0 14.52 0 22 0 C22 7.59 22 15.18 22 23 C14.74 23 7.48 23 0 23 C0 15.41 0 7.82 0 0 Z " fill="#026E6D" transform="translate(295,581)"/>
<path d="M0 0 C6.93 0 13.86 0 21 0 C21 7.92 21 15.84 21 24 C14.07 24 7.14 24 0 24 C0 16.08 0 8.16 0 0 Z " fill="#078982" transform="translate(75,183)"/>
<path d="M0 0 C6.6 0 13.2 0 20 0 C20 6.93 20 13.86 20 21 C13.4 21 6.8 21 0 21 C0 14.07 0 7.14 0 0 Z " fill="#078982" transform="translate(44,357)"/>
<path d="M0 0 C6.6 0 13.2 0 20 0 C20 6.6 20 13.2 20 20 C13.4 20 6.8 20 0 20 C0 13.4 0 6.8 0 0 Z " fill="#057A77" transform="translate(115,497)"/>
<path d="M0 0 C0.66 0 1.32 0 2 0 C2 9.24 2 18.48 2 28 C-3.61321478 24.63207113 -3.61321478 24.63207113 -6.234375 22.51171875 C-6.80462402 22.05514893 -7.37487305 21.5985791 -7.96240234 21.12817383 C-8.55230957 20.65275146 -9.1422168 20.1773291 -9.75 19.6875 C-14.99603313 15.50600954 -20.3100966 11.56747912 -26 8 C-25.34 7.67 -24.68 7.34 -24 7 C-23.236875 7.495 -22.47375 7.99 -21.6875 8.5 C-19.16704888 10.23934887 -19.16704888 10.23934887 -16.6484375 9.78125 C-13.6949838 8.91002472 -11.5240071 7.66304012 -8.9375 6 C-5.954293 4.08780568 -3.50229469 2.64707523 0 2 C0 1.34 0 0.68 0 0 Z " fill="#046361" transform="translate(447,159)"/>
<path d="M0 0 C0.66 0 1.32 0 2 0 C2.77594423 4.83762719 3.14507395 9.50672498 3.20532227 14.40405273 C3.21522186 15.107332 3.22512146 15.81061127 3.23532104 16.53520203 C3.26663411 18.83463297 3.29157252 21.1340845 3.31640625 23.43359375 C3.33700194 25.03785201 3.35799906 26.64210516 3.37937927 28.24635315 C3.4343301 32.44989868 3.48385733 36.65349097 3.53222656 40.8571167 C3.58263982 45.1541353 3.63822196 49.45108676 3.69335938 53.74804688 C3.80061037 62.16530766 3.90212744 70.58262496 4 79 C2.515 79.495 2.515 79.495 1 80 C-0.21208524 76.2238984 -0.13377197 72.49036683 -0.11352539 68.56933594 C-0.11367142 67.82748047 -0.11381744 67.085625 -0.1139679 66.32128906 C-0.11327269 63.87562103 -0.10549866 61.43002969 -0.09765625 58.984375 C-0.09579068 57.28615358 -0.09436743 55.58793162 -0.09336853 53.88970947 C-0.08955432 49.42466745 -0.07973339 44.95965806 -0.06866455 40.49462891 C-0.05842687 35.93652793 -0.05386586 31.37842167 -0.04882812 26.8203125 C-0.03811014 17.88019401 -0.02104687 8.94009972 0 0 Z " fill="#53B6AE" transform="translate(393,49)"/>
<path d="M0 0 C0.66 0.33 1.32 0.66 2 1 C1.67 1.33 1.34 1.66 1 2 C0.84417697 3.34015221 0.74955858 4.68758903 0.68359375 6.03515625 C0.64169922 6.84404297 0.59980469 7.65292969 0.55664062 8.48632812 C0.51732422 9.33646484 0.47800781 10.18660156 0.4375 11.0625 C0.39431641 11.91650391 0.35113281 12.77050781 0.30664062 13.65039062 C0.20023298 15.76672037 0.09958269 17.88333813 0 20 C2.475 20.99 2.475 20.99 5 22 C4.01 22.33 3.02 22.66 2 23 C-0.59134968 21.47585007 -2.99253107 19.91984136 -5.4375 18.1875 C-6.76814973 17.26233273 -8.10014277 16.33909396 -9.43359375 15.41796875 C-10.02197021 15.00313232 -10.61034668 14.5882959 -11.21655273 14.16088867 C-15.5558027 11.33636662 -18.03000664 10.80760942 -23.25 11.375 C-24.32765625 11.48585938 -25.4053125 11.59671875 -26.515625 11.7109375 C-27.74539063 11.85402344 -27.74539063 11.85402344 -29 12 C-26.26889148 10.17926099 -24.09670828 9.20966735 -21.03515625 8.125 C-20.07029297 7.77953125 -19.10542969 7.4340625 -18.11132812 7.078125 C-17.10521484 6.72234375 -16.09910156 6.3665625 -15.0625 6 C-13.07342132 5.29390905 -11.08510829 4.58565663 -9.09765625 3.875 C-8.21601807 3.56304688 -7.33437988 3.25109375 -6.42602539 2.9296875 C-3.99373233 2.05654539 -3.99373233 2.05654539 -1.80639648 0.8203125 C-1.21028564 0.54960938 -0.6141748 0.27890625 0 0 Z " fill="#025E5D" transform="translate(394,532)"/>
<path d="M0 0 C3.32333412 0.66466682 5.75567432 1.17840603 8.76953125 2.41015625 C9.43017578 2.67763672 10.09082031 2.94511719 10.77148438 3.22070312 C11.44501953 3.49849609 12.11855469 3.77628906 12.8125 4.0625 C13.50537109 4.34416016 14.19824219 4.62582031 14.91210938 4.91601562 C16.60967624 5.60674973 18.30506312 6.30283728 20 7 C16.58926885 10.80427705 12.72038419 13.22774561 8.375 15.8125 C7.694375 16.23208984 7.01375 16.65167969 6.3125 17.08398438 C4.58016131 18.12304523 2.79315903 19.069825 1 20 C0.34 19.67 -0.32 19.34 -1 19 C-0.67 12.73 -0.34 6.46 0 0 Z " fill="#036462" transform="translate(218,533)"/>
<path d="M0 0 C-1.32 2.31 -2.64 4.62 -4 7 C-5.06927734 6.87431641 -5.06927734 6.87431641 -6.16015625 6.74609375 C-11.69019573 6.15810839 -16.54028471 5.90805694 -22 7 C-18.31819464 4.54546309 -14.58981383 3.27700903 -10.4375 1.8125 C-9.65697266 1.52697266 -8.87644531 1.24144531 -8.07226562 0.94726562 C-2.24111087 -1.12055543 -2.24111087 -1.12055543 0 0 Z " fill="#035250" transform="translate(387,537)"/>
<path d="M0 0 C2.62627171 3.93940757 3.76964144 8.00955852 5.1875 12.5 C5.61579102 13.80130859 5.61579102 13.80130859 6.05273438 15.12890625 C6.31763672 15.96292969 6.58253906 16.79695313 6.85546875 17.65625 C7.09934326 18.41744141 7.34321777 19.17863281 7.59448242 19.96289062 C8 22 8 22 7 25 C3.57109555 22.34690913 3.18927588 19.45099007 2.375 15.3125 C2.12878906 14.06855469 1.88257812 12.82460938 1.62890625 11.54296875 C0.94600298 7.69580561 0.38869285 3.88692853 0 0 Z " fill="#149682" transform="translate(102,393)"/>
<path d="M0 0 C0.66 0.33 1.32 0.66 2 1 C0.71034824 2.37562854 -0.62689293 3.70766393 -2 5 C-2.66 5 -3.32 5 -4 5 C-4.66 6.32 -5.32 7.64 -6 9 C-6.99 8.67 -7.98 8.34 -9 8 C-9.33 8.99 -9.66 9.98 -10 11 C-11.32 10.34 -12.64 9.68 -14 9 C-11.71439353 7.4693001 -9.42237333 5.95034956 -7.125 4.4375 C-6.14853516 3.78104492 -6.14853516 3.78104492 -5.15234375 3.11132812 C-3.47374503 2.01245164 -1.73976613 0.9992182 0 0 Z " fill="#54B5A6" transform="translate(62,290)"/>
<path d="M0 0 C-2.33697029 2.33697029 -4.49097899 3.27094054 -7.5 4.625 C-8.96953125 5.29402344 -8.96953125 5.29402344 -10.46875 5.9765625 C-13 7 -13 7 -15 7 C-15.33 7.66 -15.66 8.32 -16 9 C-16.66 8.34 -17.32 7.68 -18 7 C-15.56876731 5.63336613 -13.13113837 4.2816133 -10.6875 2.9375 C-9.99720703 2.54755859 -9.30691406 2.15761719 -8.59570312 1.75585938 C-3.33984375 -1.11328125 -3.33984375 -1.11328125 0 0 Z " fill="#065958" transform="translate(437,378)"/>
<path d="M0 0 C3.69876091 1.37287342 6.9514476 3.06355453 10.3125 5.125 C11.19550781 5.66382813 12.07851563 6.20265625 12.98828125 6.7578125 C13.65214844 7.16773438 14.31601562 7.57765625 15 8 C12 9 12 9 9 8 C9 7.34 9 6.68 9 6 C7.35 5.67 5.7 5.34 4 5 C4 4.34 4 3.68 4 3 C2.68 2.67 1.36 2.34 0 2 C0 1.34 0 0.68 0 0 Z " fill="#4B8D8A" transform="translate(548,291)"/>
<path d="M0 0 C0.33 0.66 0.66 1.32 1 2 C-0.79036458 2.9765625 -2.58072917 3.953125 -4.37109375 4.9296875 C-6.16618315 5.91410024 -6.16618315 5.91410024 -7 8 C-8.84765625 8.6328125 -8.84765625 8.6328125 -11.0625 9.125 C-11.79597656 9.29257813 -12.52945313 9.46015625 -13.28515625 9.6328125 C-13.85105469 9.75398437 -14.41695312 9.87515625 -15 10 C-12.04732794 6.76612108 -9.12077252 4.77754751 -5.25 2.75 C-4.26515625 2.22921875 -3.2803125 1.7084375 -2.265625 1.171875 C-1.51796875 0.78515625 -0.7703125 0.3984375 0 0 Z " fill="#096462" transform="translate(218,178)"/>
<path d="M0 0 C0.66 0.33 1.32 0.66 2 1 C1.505 1.5775 1.01 2.155 0.5 2.75 C-1.36980013 5.10400629 -1.36980013 5.10400629 -1 9 C-2.32 8.34 -3.64 7.68 -5 7 C-4.60196439 4.11424181 -4.20990931 3.17810487 -1.9375 1.25 C-1.298125 0.8375 -0.65875 0.425 0 0 Z " fill="#085E5B" transform="translate(434,508)"/>
<path d="M0 0 C-7.0547046 5.05908096 -7.0547046 5.05908096 -11 4.8125 C-11.66 4.544375 -12.32 4.27625 -13 4 C-10.81006393 1.81006393 -9.4012702 1.27802011 -6.5 0.3125 C-5.7059375 0.04050781 -4.911875 -0.23148437 -4.09375 -0.51171875 C-2 -1 -2 -1 0 0 Z " fill="#075B5A" transform="translate(418,387)"/>
<path d="M0 0 C0.66 0.33 1.32 0.66 2 1 C-0.85276137 3.93200474 -3.65079784 6.64315404 -7 9 C-7.66 8.67 -8.32 8.34 -9 8 C-6.03 5.36 -3.06 2.72 0 0 Z " fill="#0B6B66" transform="translate(194,193)"/>
<path d="M0 0 C0.66 0.33 1.32 0.66 2 1 C1.67 1.66 1.34 2.32 1 3 C0.34 3 -0.32 3 -1 3 C-1.33 3.99 -1.66 4.98 -2 6 C-4.0625 6.6875 -4.0625 6.6875 -6 7 C-5.8125 5.1875 -5.8125 5.1875 -5 3 C-2.5625 1.1875 -2.5625 1.1875 0 0 Z " fill="#46B0A6" transform="translate(9,156)"/>
<path d="M0 0 C2.625 0.9375 2.625 0.9375 5 2 C2 4 2 4 -1 4 C-1.66 4.66 -2.32 5.32 -3 6 C-2.625 3.5625 -2.625 3.5625 -2 1 C-1.34 0.67 -0.68 0.34 0 0 Z " fill="#2D9793" transform="translate(577,142)"/>
<path d="M0 0 C3.53600465 1.91135386 5.78972846 3.62642766 8 7 C7.01 7 6.02 7 5 7 C5 6.34 5 5.68 5 5 C4.34 5 3.68 5 3 5 C1.375 3.625 1.375 3.625 0 2 C0 1.34 0 0.68 0 0 Z " fill="#27716D" transform="translate(433,206)"/>
</svg>
