<svg width="32" height="32" viewBox="0 0 32 32" fill="none" xmlns="http://www.w3.org/2000/svg">
<g clip-path="url(#clip0_78_70)">
<path d="M16.3127 -8.93705e-05C16.5708 0.0970003 16.8009 0.227886 17.0358 0.363278C17.1027 0.400517 17.1697 0.437627 17.2368 0.474615C17.371 0.548833 17.5047 0.62364 17.6382 0.69902C17.8886 0.840247 18.1429 0.975463 18.3974 1.11069C18.4878 1.15923 18.5782 1.20779 18.6686 1.25637C18.9031 1.38211 19.1384 1.50677 19.3738 1.63119C19.4437 1.66818 19.5136 1.70516 19.5835 1.74216C19.6869 1.7969 19.7904 1.8516 19.894 1.90614C19.9899 1.95665 20.0858 2.00735 20.1816 2.05807C20.2371 2.08733 20.2925 2.11659 20.3497 2.14673C20.4821 2.22148 20.4821 2.22148 20.5863 2.31601C20.6363 2.54164 20.6405 2.75072 20.626 2.97976C20.6222 3.04498 20.6185 3.1102 20.6148 3.17543C20.6129 3.20955 20.611 3.24367 20.609 3.27882C20.5978 3.5008 20.5929 3.72297 20.5875 3.94512C20.5824 4.13929 20.5748 4.33276 20.5611 4.52659C20.4743 5.33704 20.4743 5.33704 20.7537 6.07912C21.0597 6.36485 21.4656 6.53421 21.8641 6.68898C22.2133 6.82531 22.5169 7.01143 22.8306 7.20523C23.0979 7.37189 23.0979 7.37189 23.4006 7.46815C23.6207 7.4122 23.7879 7.30216 23.9739 7.18455C24.0744 7.13164 24.1754 7.07958 24.2769 7.02835C24.3844 6.97217 24.4919 6.91592 24.5993 6.85959C24.6573 6.82927 24.7152 6.79896 24.7749 6.76773C25.0864 6.60441 25.3969 6.43959 25.7062 6.27281C25.7372 6.2561 25.7682 6.23939 25.8001 6.22218C25.9486 6.14211 26.0969 6.06183 26.245 5.98129C26.4081 5.89299 26.572 5.80592 26.7361 5.71926C26.7657 5.70334 26.7952 5.68741 26.8256 5.671C26.9155 5.62278 27.0061 5.57573 27.0967 5.52871C27.15 5.50066 27.2033 5.4726 27.2582 5.44369C27.4452 5.37718 27.535 5.38519 27.7264 5.43566C27.8568 5.49127 27.8568 5.49127 27.9866 5.56176C28.0355 5.58804 28.0845 5.61432 28.1349 5.6414C28.2132 5.68433 28.2132 5.68433 28.2932 5.72812C28.4063 5.78907 28.5194 5.85 28.6325 5.91092C28.6901 5.9421 28.7476 5.97328 28.8069 6.0054C29.0656 6.14514 29.326 6.2822 29.5863 6.41941C29.8003 6.53258 30.0141 6.64587 30.228 6.75914C30.2604 6.77631 30.2929 6.79348 30.3263 6.81117C30.536 6.92222 30.7458 7.03335 30.9554 7.14459C31.024 7.18095 31.0925 7.21727 31.1611 7.25358C31.2567 7.30417 31.3522 7.35485 31.4477 7.40556C31.5303 7.44937 31.5303 7.44937 31.6146 7.49406C31.7394 7.56269 31.7394 7.56269 31.7915 7.60996C31.8023 7.73751 31.8097 7.86396 31.8148 7.99174C31.8166 8.03179 31.8183 8.07184 31.8202 8.11311C31.8357 8.48446 31.8451 8.85594 31.8525 9.22749C31.8576 9.47707 31.8648 9.72628 31.877 9.97565C31.9531 11.5786 31.9531 11.5786 31.6926 11.9626C31.446 12.1833 31.1619 12.2917 30.836 12.3874C30.6357 12.4506 30.4706 12.548 30.2948 12.6537C30.2351 12.6869 30.1753 12.7198 30.1152 12.7524C29.881 12.8809 29.6467 13.0094 29.4129 13.1385C29.2899 13.2061 29.1667 13.2731 29.0432 13.3397C28.9804 13.3738 28.9177 13.408 28.855 13.4421C28.7985 13.4726 28.742 13.5031 28.6837 13.5346C28.643 13.5604 28.6022 13.5863 28.5603 13.6129C28.5603 13.6441 28.5603 13.6753 28.5603 13.7074C28.6356 13.7616 28.6356 13.7616 28.737 13.8125C28.7765 13.8337 28.816 13.8548 28.8568 13.8766C28.9008 13.8998 28.9448 13.9229 28.9902 13.9467C29.0856 13.9977 29.1809 14.0487 29.2763 14.0998C29.3284 14.1276 29.3805 14.1554 29.4342 14.1841C29.7109 14.3329 29.9857 14.4845 30.2606 14.6361C30.3524 14.6868 30.4443 14.7374 30.5362 14.788C30.7115 14.8845 30.8867 14.9813 31.0619 15.0782C31.0935 15.0957 31.1251 15.1132 31.1577 15.1312C31.2524 15.1836 31.347 15.2361 31.4416 15.2887C31.4975 15.3197 31.5534 15.3507 31.611 15.3827C31.7394 15.4563 31.7394 15.4563 31.7915 15.5036C31.799 15.6387 31.803 15.7728 31.8049 15.908C31.8056 15.9504 31.8064 15.9929 31.8072 16.0366C31.8138 16.4284 31.8173 16.8203 31.8201 17.2122C31.822 17.4757 31.8247 17.7391 31.8298 18.0026C31.8346 18.257 31.8371 18.5114 31.8381 18.7658C31.8388 18.8628 31.8403 18.9599 31.8427 19.0568C31.8604 19.815 31.8604 19.815 31.6958 20.017C31.5736 20.0925 31.4615 20.1384 31.3225 20.1831C31.2646 20.2151 31.2067 20.2471 31.147 20.28C31.0928 20.3086 31.0386 20.3372 30.9827 20.3666C30.9371 20.3907 30.9371 20.3907 30.8905 20.4154C30.7946 20.4661 30.6986 20.5166 30.6026 20.5671C30.5407 20.5997 30.4789 20.6323 30.417 20.665C30.3859 20.6813 30.3547 20.6975 30.3227 20.7143C30.2581 20.7488 30.1941 20.7844 30.1308 20.8208C29.9344 20.932 29.754 21.0053 29.5314 21.0647C29.2045 21.1674 28.9511 21.2774 28.7687 21.5538C28.571 22.1706 28.6715 22.8935 28.7003 23.5264C28.7174 23.9158 28.7267 24.3053 28.7337 24.6949C28.7371 24.8307 28.7438 24.966 28.751 25.1016C28.7732 25.6924 28.7732 25.6924 28.622 25.8745C28.4998 25.9499 28.3857 25.9976 28.2475 26.0442C28.192 26.0757 28.1365 26.1072 28.0794 26.1397C28.0283 26.1677 27.9773 26.1956 27.9247 26.2244C27.8665 26.2564 27.8083 26.2883 27.7484 26.3212C27.6868 26.3549 27.6251 26.3886 27.5635 26.4224C27.4986 26.4579 27.4338 26.4935 27.3689 26.5291C27.2378 26.6011 27.1066 26.6731 26.9754 26.745C26.7075 26.892 26.4401 27.0398 26.1726 27.1875C26.125 27.2138 26.0773 27.24 26.0282 27.2671C25.7703 27.4093 25.5129 27.5522 25.2561 27.696C25.2013 27.7266 25.1464 27.7571 25.0899 27.7887C24.9846 27.8474 24.8794 27.9063 24.7744 27.9655C24.7271 27.9918 24.6799 28.0181 24.6313 28.0451C24.5898 28.0684 24.5483 28.0917 24.5055 28.1156C24.3942 28.1697 24.3076 28.2043 24.1824 28.2185C24.0592 28.1612 23.9514 28.1021 23.8371 28.0324C23.7619 27.9881 23.6865 27.944 23.6111 27.8998C23.5694 27.8752 23.5277 27.8506 23.4848 27.8253C23.229 27.6761 22.9692 27.5327 22.7101 27.3884C22.6566 27.3586 22.6031 27.3287 22.548 27.298C22.1059 27.0517 21.6627 26.8069 21.219 26.5629C21.152 26.526 21.085 26.4891 21.0179 26.4522C20.8567 26.3635 20.6954 26.2747 20.5342 26.186C20.5377 26.2256 20.5411 26.2652 20.5447 26.3059C20.5763 26.6825 20.6 27.0587 20.6152 27.4362C20.6233 27.6302 20.6342 27.8234 20.6521 28.0169C20.7614 29.2288 20.7614 29.2288 20.4671 29.5732C20.1098 29.898 19.6328 30.0814 19.175 30.2607C18.8426 30.3937 18.5412 30.5748 18.2345 30.7503C18.1157 30.8161 17.9965 30.8813 17.8772 30.9466C17.6529 31.07 17.4298 31.195 17.2075 31.3214C17.0733 31.3977 16.9386 31.4734 16.804 31.5491C16.7398 31.5854 16.6757 31.622 16.6118 31.6588C16.5235 31.7097 16.4345 31.7598 16.3455 31.8097C16.295 31.8385 16.2445 31.8673 16.1925 31.897C16.0241 31.9637 15.963 31.9608 15.7915 31.9054C15.6503 31.8383 15.6503 31.8383 15.4963 31.7516C15.4386 31.7194 15.3808 31.6871 15.3213 31.6539C15.2907 31.6367 15.2602 31.6194 15.2287 31.6017C15.0653 31.5094 14.9012 31.4182 14.7372 31.3269C14.7035 31.3081 14.6698 31.2893 14.6351 31.2699C14.2945 31.08 13.9504 30.8958 13.6059 30.7119C13.1745 30.481 12.7451 30.2478 12.3192 30.0088C12.2763 29.9848 12.2335 29.9607 12.1893 29.936C12.111 29.8918 12.0332 29.8469 11.9562 29.801C11.8339 29.7294 11.8339 29.7294 11.707 29.6815C11.5623 29.6163 11.4686 29.5582 11.3616 29.4475C11.2918 29.2048 11.2995 28.9653 11.3043 28.7167C11.3041 28.645 11.3035 28.5734 11.3029 28.5017C11.3016 28.3138 11.3031 28.1259 11.3052 27.938C11.3068 27.746 11.3058 27.554 11.3051 27.362C11.3039 26.9857 11.3057 26.6095 11.3094 26.2333C10.5215 26.6603 10.5215 26.6603 9.7394 27.0959C9.67425 27.1324 9.67425 27.1324 9.60777 27.1696C9.37264 27.3014 9.13856 27.4344 8.90596 27.5698C8.78322 27.6411 8.66004 27.7117 8.5368 27.7823C8.47688 27.8168 8.41717 27.8516 8.35767 27.8868C8.27432 27.9359 8.1902 27.984 8.10606 28.032C8.05789 28.0601 8.00972 28.0881 7.9601 28.117C7.78044 28.1854 7.69065 28.1726 7.50487 28.124C7.37671 28.0676 7.37671 28.0676 7.2506 27.9962C7.20318 27.9697 7.15576 27.9432 7.10691 27.9158C7.03141 27.8726 7.03141 27.8726 6.95439 27.8286C6.90133 27.7987 6.84828 27.7689 6.79362 27.7382C6.68383 27.6764 6.57418 27.6144 6.46467 27.5522C6.27684 27.4456 6.08836 27.34 5.89981 27.2344C5.76677 27.1598 5.63388 27.0851 5.50101 27.0103C5.28836 26.8907 5.07536 26.7716 4.86216 26.6528C4.83222 26.6361 4.80229 26.6194 4.77144 26.6022C4.62539 26.5208 4.47931 26.4395 4.33319 26.3582C3.31976 25.7936 3.31976 25.7936 3.23126 25.7134C3.23195 25.5892 3.23595 25.4664 3.24206 25.3425C3.24551 25.2618 3.24887 25.1811 3.25217 25.1004C3.25393 25.0573 3.2557 25.0143 3.25751 24.9699C3.2676 24.6934 3.27204 24.4168 3.2768 24.1401C3.28129 23.8974 3.2882 23.6551 3.30077 23.4125C3.41162 22.3777 3.41162 22.3777 3.05179 21.4424C2.75246 21.1783 2.37112 21.0342 1.98509 20.902C1.78074 20.8294 1.61632 20.7369 1.43464 20.6258C1.38469 20.5976 1.33474 20.5693 1.28327 20.5402C1.23709 20.514 1.1909 20.4878 1.14331 20.4608C1.06889 20.4187 1.06889 20.4187 0.992965 20.3758C0.944157 20.3482 0.895349 20.3205 0.845062 20.292C0.80374 20.2686 0.762419 20.2452 0.719846 20.2211C0.647295 20.1789 0.647295 20.1789 0.573278 20.1358C0.514309 20.1166 0.514309 20.1166 0.454147 20.097C0.293348 20.0317 0.212158 19.98 0.104223 19.8522C0.00879666 19.5419 0.0382662 19.2021 0.0419266 18.8832C0.0416105 18.7868 0.0411552 18.6904 0.0405668 18.594C0.0398759 18.3921 0.0408779 18.1903 0.0430718 17.9885C0.0457447 17.73 0.0442048 17.4717 0.0413954 17.2132C0.0396986 17.0141 0.0402412 16.8151 0.0414559 16.6161C0.0417683 16.5208 0.0413868 16.4255 0.0402932 16.3303C0.0336353 15.5872 0.0336343 15.5872 0.203529 15.386C0.324755 15.3113 0.435611 15.2644 0.573278 15.22C0.620613 15.193 0.667947 15.1661 0.716715 15.1383C0.756517 15.1166 0.796318 15.0949 0.837326 15.0725C0.883518 15.0472 0.92971 15.0218 0.977302 14.9957C1.02564 14.9693 1.07397 14.9429 1.12377 14.9157C1.56872 14.6714 2.01167 14.4243 2.45276 14.1742C2.5051 14.1446 2.55744 14.1149 2.61136 14.0844C2.74876 14.0064 2.88588 13.928 3.02279 13.8492C3.05678 13.8298 3.09076 13.8104 3.12578 13.7904C3.28352 13.7014 3.28352 13.7014 3.38761 13.5656C3.34975 13.5528 3.3119 13.5399 3.27289 13.5266C3.13163 13.4729 3.00828 13.4113 2.87784 13.3387C2.8302 13.3123 2.78256 13.2859 2.73347 13.2587C2.68276 13.2303 2.63204 13.202 2.57979 13.1727C2.527 13.1434 2.4742 13.114 2.4198 13.0838C2.25582 12.9926 2.09204 12.901 1.92833 12.8094C1.87813 12.7813 1.82792 12.7532 1.7762 12.7242C1.54403 12.5942 1.31203 12.4639 1.0802 12.3334C0.926003 12.2466 0.771607 12.1601 0.616845 12.0741C0.584808 12.0563 0.55277 12.0385 0.519762 12.0202C0.436931 11.9742 0.354048 11.9284 0.271161 11.8825C0.15634 11.8168 0.15634 11.8168 0.104223 11.7695C0.0967675 11.6416 0.0927008 11.5148 0.0908629 11.3868C0.0901019 11.3467 0.0893408 11.3065 0.0885567 11.2652C0.0819847 10.8946 0.0784069 10.5239 0.0756403 10.1533C0.0737759 9.90412 0.0709965 9.65503 0.0659749 9.4059C0.0611384 9.16525 0.0586024 8.92467 0.0576916 8.68398C0.0569567 8.59225 0.05541 8.50053 0.0530362 8.40882C0.0353802 7.69161 0.0353816 7.69161 0.20127 7.49485C0.322906 7.4197 0.435407 7.37205 0.573278 7.32635C0.625895 7.29747 0.678511 7.26858 0.732722 7.23882C0.779737 7.21451 0.826752 7.19021 0.875192 7.16516C0.928913 7.13725 0.982634 7.10934 1.03798 7.08059C1.12237 7.037 1.12237 7.037 1.20846 6.99253C1.32962 6.92955 1.45076 6.86653 1.57185 6.80346C1.61723 6.77984 1.61723 6.77984 1.66353 6.75574C1.94644 6.60831 2.22747 6.45809 2.50813 6.30715C2.57642 6.27062 2.57642 6.27062 2.64608 6.23335C2.90341 6.09562 3.15963 5.95639 3.41509 5.81583C3.52862 5.75409 3.64215 5.69235 3.75569 5.63063C3.80874 5.60105 3.86179 5.57146 3.91644 5.54098C3.96612 5.51415 4.01579 5.48731 4.06697 5.45966C4.11071 5.4356 4.15445 5.41154 4.19951 5.38675C4.35806 5.32943 4.42531 5.33963 4.58631 5.38839C4.68961 5.43462 4.79095 5.48453 4.89066 5.53684C4.94977 5.56765 5.00888 5.59846 5.06978 5.63021C5.13338 5.66382 5.19698 5.69745 5.26057 5.73108C5.3265 5.76562 5.39244 5.80013 5.45839 5.83463C5.89818 6.06505 6.33543 6.29935 6.77214 6.53453C7.1296 6.72664 7.48909 6.91535 7.85015 7.10183C7.90116 7.12838 7.95218 7.15492 8.00473 7.18228C8.05221 7.20667 8.09969 7.23106 8.1486 7.25619C8.19043 7.27777 8.23226 7.29936 8.27536 7.3216C8.43088 7.39197 8.43088 7.39197 8.59934 7.42089C8.73255 7.3733 8.73255 7.3733 8.87031 7.29533C8.92415 7.26679 8.978 7.23825 9.03348 7.20884C9.09122 7.17743 9.14896 7.14601 9.20846 7.11365C9.26845 7.08159 9.32847 7.04958 9.38853 7.01763C9.7037 6.84939 10.0168 6.67798 10.33 6.50674C10.36 6.49037 10.3899 6.474 10.4208 6.45713C10.5653 6.37816 10.7096 6.29888 10.8535 6.21908C10.9051 6.19068 10.9566 6.16229 11.0098 6.13304C11.0552 6.10784 11.1006 6.08265 11.1474 6.0567C11.2573 6.00287 11.2573 6.00287 11.3616 6.00287C11.3605 5.95731 11.3595 5.91175 11.3584 5.86481C11.3489 5.43503 11.3419 5.00528 11.3372 4.57544C11.3348 4.35446 11.3315 4.13354 11.3262 3.9126C11.3211 3.69929 11.3183 3.48604 11.317 3.27268C11.3162 3.19137 11.3145 3.11007 11.312 3.02879C11.2929 2.39352 11.2929 2.39352 11.4573 2.20787C11.5786 2.133 11.6947 2.08199 11.8306 2.03241C11.9166 1.98478 11.9166 1.98478 12.0044 1.9362C12.058 1.90793 12.1115 1.87966 12.1667 1.85054C12.2114 1.82689 12.2114 1.82689 12.2569 1.80277C12.3525 1.75216 12.4482 1.70174 12.544 1.65131C12.6454 1.5977 12.7468 1.54403 12.8481 1.49037C12.916 1.45444 12.9839 1.41853 13.0518 1.38264C13.3492 1.22534 13.6453 1.06623 13.9414 0.906853C15.7647 -0.0731652 15.7647 -0.0731652 16.3127 -8.93705e-05Z" fill="#087D7B"/>
<path d="M23.3284 8.8048C23.4582 8.90933 23.5862 9.01536 23.7134 9.12256C23.7654 9.16588 23.7654 9.16588 23.8184 9.21008C24.1517 9.49883 24.427 9.82942 24.7036 10.1624C24.7377 10.2032 24.7377 10.2032 24.7725 10.2449C25.8348 11.5241 26.4688 12.9903 26.7883 14.5583C26.7981 14.6031 26.8079 14.648 26.8179 14.6942C26.9115 15.1679 26.911 15.6386 26.9088 16.1181C26.9087 16.1827 26.9087 16.1827 26.9085 16.2486C26.9062 16.8766 26.8865 17.488 26.7362 18.1034C26.7272 18.1417 26.7183 18.1799 26.7091 18.2194C26.1079 20.7434 24.4289 23.0176 22.0498 24.4502C20.4238 25.3964 18.4838 26.0396 16.5389 26.0555C16.492 26.056 16.4452 26.0565 16.3969 26.0569C15.4126 26.0646 14.4598 26.0701 13.4984 25.8552C13.4573 25.8466 13.4163 25.838 13.374 25.8291C12.4297 25.6291 11.5372 25.2755 10.6841 24.8626C10.5928 24.8191 10.5928 24.8191 10.4996 24.7747C9.30737 24.184 8.23865 23.3209 7.40068 22.3574C7.36125 22.3146 7.32181 22.2719 7.28118 22.2278C6.26268 21.0916 5.61244 19.7051 5.25084 18.2865C5.24296 18.2561 5.23508 18.2257 5.22696 18.1944C5.07296 17.5492 5.037 16.897 5.04238 16.2392C5.04255 16.2031 5.04273 16.1669 5.04292 16.1297C5.04598 15.6014 5.05478 15.0793 5.15964 14.5583C5.16777 14.5172 5.1759 14.4761 5.18427 14.4338C5.70742 11.8761 7.29243 9.58381 9.64172 8.08268C9.67217 8.06316 9.70262 8.04363 9.734 8.02352C10.9548 7.25238 12.3557 6.74145 13.8111 6.47559C13.8513 6.46792 13.8915 6.46025 13.9328 6.45234C17.2606 5.84509 20.7968 6.80393 23.3284 8.8048Z" fill="#077E7C"/>
<path d="M16.3127 -8.93727e-05C16.5708 0.0970003 16.8009 0.227886 17.0358 0.363278C17.1027 0.400517 17.1697 0.437627 17.2367 0.474615C17.371 0.548833 17.5047 0.62364 17.6382 0.69902C17.8886 0.840247 18.1429 0.975463 18.3974 1.11069C18.4878 1.15923 18.5782 1.20779 18.6685 1.25637C18.9031 1.38211 19.1383 1.50677 19.3738 1.63119C19.4437 1.66818 19.5136 1.70516 19.5834 1.74216C19.6869 1.7969 19.7904 1.8516 19.894 1.90614C19.9899 1.95665 20.0858 2.00735 20.1816 2.05807C20.2371 2.08733 20.2925 2.11659 20.3497 2.14673C20.4821 2.22148 20.4821 2.22148 20.5863 2.31601C20.6348 2.5433 20.646 2.76578 20.6491 2.99685C20.6496 3.03009 20.6501 3.06334 20.6507 3.09759C20.6523 3.20627 20.6536 3.31496 20.6549 3.42365C20.656 3.49948 20.6571 3.57531 20.6582 3.65114C20.6611 3.84983 20.6636 4.04852 20.6662 4.24722C20.6688 4.45033 20.6717 4.65343 20.6746 4.85654C20.6801 5.2544 20.6854 5.65227 20.6905 6.05013C20.6413 6.06434 20.5921 6.07855 20.5414 6.09319C20.3833 6.14296 20.2838 6.19671 20.1519 6.28795C19.4204 6.75504 19.4204 6.75504 18.9554 6.68603C18.7411 6.63942 18.5362 6.57714 18.3288 6.51025C18.0632 6.42591 17.8333 6.4144 17.5535 6.42666C17.4071 6.42827 17.4071 6.42827 17.261 6.40575C17.0517 6.37466 16.8485 6.37246 16.6368 6.3714C16.5929 6.37107 16.549 6.37074 16.5038 6.3704C16.3619 6.36957 16.22 6.36927 16.0782 6.36919C16.0057 6.36914 16.0057 6.36914 15.9318 6.36909C15.2144 6.36984 14.5152 6.38725 13.8111 6.52281C13.768 6.53092 13.725 6.53903 13.6806 6.54739C11.6437 6.94348 9.84094 7.81966 8.33874 9.12251C8.29044 9.16382 8.24213 9.20513 8.19237 9.2477C6.32159 10.889 5.15407 13.3355 5.0986 15.69C5.09564 15.8622 5.09459 16.0344 5.09444 16.2067C5.09441 16.2431 5.09437 16.2795 5.09434 16.317C5.09606 17.4463 5.28506 18.5337 5.73915 19.5897C5.88939 19.9477 5.88939 19.9477 5.83711 20.1358C5.69437 20.2516 5.53431 20.3342 5.36806 20.4194C5.33047 20.4396 5.29288 20.4598 5.25415 20.4805C5.14077 20.541 5.02653 20.6 4.91203 20.6587C4.47922 20.8825 4.05574 21.1182 3.63602 21.3617C3.5922 21.3868 3.54838 21.4119 3.50324 21.4377C3.46451 21.4601 3.42578 21.4826 3.38587 21.5057C3.28337 21.5538 3.28337 21.5538 3.12702 21.5538C2.99882 21.4929 2.8761 21.4296 2.75242 21.3618C2.69499 21.3307 2.69499 21.3307 2.63639 21.299C2.13248 21.0247 1.63542 20.7401 1.13796 20.4563C1.00109 20.3783 0.864007 20.3007 0.726772 20.2233C0.687743 20.2013 0.648714 20.1793 0.608503 20.1566C0.536962 20.1162 0.465396 20.0759 0.393799 20.0356C0.162137 19.9047 0.162137 19.9047 0.104215 19.8522C0.0967541 19.7185 0.0926905 19.5859 0.0908546 19.4521C0.0900936 19.4102 0.0893325 19.3682 0.0885484 19.325C0.0819769 18.9374 0.0783988 18.5497 0.075632 18.1621C0.0737674 17.9014 0.0709875 17.6409 0.0659666 17.3803C0.0611312 17.1286 0.0585942 16.877 0.0576833 16.6253C0.0569482 16.5294 0.0554011 16.4334 0.0530279 16.3375C0.035353 15.5863 0.0353544 15.5863 0.202593 15.3855C0.324179 15.3106 0.435025 15.264 0.57327 15.22C0.620604 15.193 0.667939 15.1661 0.716707 15.1383C0.756508 15.1166 0.79631 15.0949 0.837317 15.0725C0.883509 15.0471 0.929702 15.0218 0.977293 14.9957C1.02563 14.9693 1.07396 14.9429 1.12376 14.9157C1.56872 14.6714 2.01166 14.4243 2.45275 14.1742C2.50509 14.1446 2.55743 14.1149 2.61135 14.0844C2.74875 14.0064 2.88587 13.928 3.02278 13.8492C3.05677 13.8298 3.09075 13.8104 3.12577 13.7904C3.28351 13.7014 3.28351 13.7014 3.3876 13.5656C3.34974 13.5528 3.31189 13.5399 3.27288 13.5266C3.13162 13.4729 3.00827 13.4113 2.87783 13.3387C2.83019 13.3123 2.78255 13.2859 2.73346 13.2587C2.68275 13.2303 2.63204 13.202 2.57978 13.1727C2.52699 13.1434 2.47419 13.114 2.41979 13.0838C2.25581 12.9926 2.09203 12.901 1.92832 12.8094C1.87812 12.7813 1.82791 12.7532 1.77619 12.7242C1.54402 12.5942 1.31203 12.4639 1.08019 12.3334C0.925995 12.2466 0.771599 12.1601 0.616837 12.0741C0.584799 12.0563 0.552762 12.0385 0.519753 12.0202C0.436922 11.9742 0.35404 11.9284 0.271153 11.8825C0.156332 11.8167 0.156332 11.8167 0.104215 11.7695C0.0967592 11.6416 0.0926925 11.5148 0.0908546 11.3868C0.0900936 11.3467 0.0893325 11.3065 0.0885484 11.2652C0.0819764 10.8946 0.0783986 10.5239 0.075632 10.1533C0.0737676 9.90412 0.0709882 9.65503 0.0659666 9.4059C0.0611301 9.16525 0.0585941 8.92466 0.0576833 8.68398C0.0569484 8.59225 0.0554017 8.50053 0.0530279 8.40882C0.0353719 7.69161 0.0353733 7.69161 0.201262 7.49485C0.322898 7.4197 0.435398 7.37205 0.57327 7.32635C0.625887 7.29747 0.678503 7.26858 0.732714 7.23882C0.779729 7.21451 0.826744 7.19021 0.875184 7.16516C0.928905 7.13725 0.982625 7.10934 1.03797 7.08059C1.12236 7.037 1.12236 7.037 1.20845 6.99253C1.32961 6.92955 1.45075 6.86653 1.57184 6.80346C1.61722 6.77984 1.61722 6.77984 1.66352 6.75574C1.94644 6.60831 2.22747 6.45808 2.50812 6.30715C2.57641 6.27062 2.57641 6.27062 2.64608 6.23335C2.9034 6.09562 3.15963 5.95639 3.41509 5.81583C3.52861 5.75409 3.64214 5.69235 3.75568 5.63063C3.80873 5.60105 3.86178 5.57146 3.91643 5.54098C3.96611 5.51414 4.01578 5.48731 4.06696 5.45966C4.1107 5.4356 4.15444 5.41154 4.1995 5.38675C4.35805 5.32943 4.4253 5.33963 4.5863 5.38839C4.6896 5.43461 4.79094 5.48453 4.89066 5.53684C4.94976 5.56765 5.00887 5.59846 5.06977 5.63021C5.13338 5.66382 5.19697 5.69745 5.26057 5.73108C5.32649 5.76562 5.39243 5.80013 5.45839 5.83462C5.89817 6.06505 6.33542 6.29935 6.77213 6.53453C7.12959 6.72664 7.48908 6.91535 7.85014 7.10183C7.90116 7.12838 7.95217 7.15492 8.00473 7.18228C8.0522 7.20667 8.09968 7.23106 8.1486 7.25619C8.19042 7.27777 8.23225 7.29936 8.27535 7.3216C8.43087 7.39197 8.43087 7.39197 8.59933 7.42089C8.73254 7.3733 8.73254 7.3733 8.8703 7.29533C8.92414 7.26679 8.97799 7.23825 9.03347 7.20884C9.09121 7.17743 9.14896 7.14601 9.20845 7.11365C9.26844 7.08159 9.32846 7.04958 9.38852 7.01762C9.7037 6.84939 10.0168 6.67798 10.33 6.50674C10.36 6.49037 10.3899 6.474 10.4208 6.45713C10.5653 6.37816 10.7096 6.29888 10.8535 6.21908C10.9051 6.19068 10.9566 6.16229 11.0098 6.13303C11.0552 6.10784 11.1006 6.08265 11.1474 6.0567C11.2573 6.00287 11.2573 6.00286 11.3615 6.00286C11.3605 5.95731 11.3595 5.91175 11.3584 5.86481C11.3489 5.43503 11.3418 5.00528 11.3372 4.57544C11.3348 4.35446 11.3315 4.13354 11.3262 3.9126C11.3211 3.69929 11.3183 3.48604 11.317 3.27268C11.3162 3.19137 11.3145 3.11007 11.312 3.02879C11.2929 2.39352 11.2929 2.39352 11.4573 2.20787C11.5786 2.133 11.6947 2.08199 11.8306 2.03241C11.9166 1.98478 11.9166 1.98478 12.0044 1.9362C12.058 1.90793 12.1115 1.87966 12.1667 1.85054C12.2114 1.82689 12.2114 1.82689 12.2569 1.80277C12.3525 1.75216 12.4482 1.70174 12.544 1.65131C12.6454 1.5977 12.7468 1.54403 12.8481 1.49036C12.916 1.45444 12.9839 1.41853 13.0518 1.38264C13.3491 1.22534 13.6453 1.06623 13.9413 0.906853C15.7647 -0.0731652 15.7647 -0.0731652 16.3127 -8.93727e-05Z" fill="#35B0A5"/>
<path d="M27.7264 5.43585C27.8568 5.49146 27.8568 5.49146 27.9865 5.56195C28.06 5.60137 28.06 5.60137 28.1349 5.64159C28.1871 5.67021 28.2393 5.69883 28.2931 5.72831C28.4062 5.78925 28.5194 5.85018 28.6325 5.9111C28.69 5.94229 28.7476 5.97347 28.8068 6.00559C29.0655 6.14533 29.3259 6.28238 29.5863 6.4196C29.8002 6.53276 30.0141 6.64606 30.228 6.75933C30.2604 6.7765 30.2928 6.79367 30.3262 6.81135C30.536 6.92241 30.7457 7.03354 30.9554 7.14478C31.0239 7.18113 31.0925 7.21746 31.1611 7.25377C31.2567 7.30436 31.3522 7.35504 31.4476 7.40575C31.5027 7.43495 31.5578 7.46416 31.6146 7.49425C31.7394 7.56288 31.7394 7.56288 31.7915 7.61014C31.8023 7.7377 31.8097 7.86415 31.8148 7.99193C31.8165 8.03198 31.8183 8.07203 31.8201 8.1133C31.8357 8.48465 31.845 8.85613 31.8525 9.22768C31.8576 9.47725 31.8648 9.72646 31.8769 9.97584C31.9531 11.5788 31.9531 11.5788 31.6925 11.9627C31.446 12.1835 31.1619 12.2919 30.836 12.3875C30.6357 12.4508 30.4706 12.5482 30.2948 12.6539C30.2351 12.6871 30.1752 12.72 30.1152 12.7526C29.8809 12.8811 29.6467 13.0096 29.4128 13.1387C29.2899 13.2063 29.1667 13.2733 29.0431 13.3399C28.9804 13.374 28.9177 13.4082 28.855 13.4423C28.7985 13.4728 28.7419 13.5033 28.6837 13.5348C28.643 13.5606 28.6022 13.5865 28.5602 13.6131C28.5602 13.6443 28.5602 13.6755 28.5602 13.7076C28.6356 13.7618 28.6356 13.7618 28.7369 13.8127C28.7765 13.8338 28.816 13.855 28.8567 13.8768C28.9008 13.8999 28.9448 13.9231 28.9902 13.9469C29.0856 13.9979 29.1809 14.0489 29.2762 14.1C29.3283 14.1278 29.3804 14.1556 29.4341 14.1843C29.7109 14.3331 29.9857 14.4847 30.2605 14.6363C30.3524 14.687 30.4443 14.7376 30.5362 14.7881C30.7115 14.8847 30.8867 14.9815 31.0619 15.0784C31.0935 15.0959 31.1251 15.1134 31.1577 15.1314C31.2524 15.1838 31.347 15.2363 31.4415 15.2889C31.4974 15.3199 31.5533 15.3509 31.6109 15.3829C31.7394 15.4565 31.7394 15.4565 31.7915 15.5038C31.799 15.6389 31.803 15.773 31.8049 15.9082C31.8056 15.9506 31.8064 15.993 31.8072 16.0367C31.8137 16.4286 31.8173 16.8205 31.8201 17.2124C31.8219 17.4759 31.8247 17.7393 31.8297 18.0027C31.8346 18.2572 31.8371 18.5116 31.838 18.766C31.8388 18.863 31.8403 18.96 31.8427 19.057C31.8603 19.8152 31.8603 19.8152 31.6958 20.0172C31.5736 20.0927 31.4615 20.1385 31.3224 20.1833C31.2645 20.2153 31.2066 20.2473 31.147 20.2802C31.0928 20.3088 31.0385 20.3374 30.9827 20.3668C30.9526 20.3827 30.9225 20.3986 30.8915 20.415C30.8278 20.4487 30.7642 20.4822 30.7005 20.5158C30.5334 20.6037 30.3667 20.692 30.1999 20.7804C30.1668 20.7979 30.1337 20.8154 30.0995 20.8335C29.7552 21.016 29.4132 21.202 29.0718 21.389C29.0328 21.4103 28.9939 21.4316 28.9538 21.4536C28.9202 21.472 28.8867 21.4904 28.8522 21.5093C28.791 21.5421 28.7281 21.5724 28.6645 21.6013C28.5687 21.5636 28.5687 21.5636 28.4515 21.5018C28.4078 21.4789 28.3641 21.4561 28.319 21.4325C28.2718 21.4073 28.2245 21.3821 28.1759 21.3561C28.103 21.3177 28.103 21.3177 28.0286 21.2786C27.6449 21.076 27.2636 20.8695 26.8841 20.6606C26.6123 20.5113 26.3374 20.3687 26.0586 20.2305C26.1221 19.9021 26.217 19.5945 26.3355 19.2793C26.475 18.8953 26.5871 18.5112 26.6775 18.1153C26.6881 18.0692 26.6986 18.0232 26.7095 17.9757C26.9836 16.725 26.9667 15.2745 26.6319 14.0385C26.6193 13.9906 26.6067 13.9427 26.5938 13.8933C25.917 11.3714 24.2359 9.19234 21.8045 7.81989C20.5076 7.1088 19.1011 6.68157 17.6156 6.42846C17.6156 6.41286 17.6156 6.39726 17.6156 6.38119C17.962 6.3668 18.2611 6.41923 18.5961 6.49641C18.6451 6.50728 18.6941 6.51816 18.7446 6.52936C18.9265 6.57006 19.1055 6.61103 19.2834 6.6648C19.4074 6.61378 19.4074 6.61378 19.5384 6.535C19.5883 6.50712 19.6381 6.47924 19.6894 6.45052C19.7939 6.39082 19.8982 6.331 20.0025 6.27106C20.0525 6.24312 20.1025 6.21518 20.1541 6.1864C20.1995 6.16036 20.2449 6.13431 20.2917 6.10748C20.4596 6.03805 20.5596 6.02946 20.7426 6.05032C20.8987 6.11433 20.8987 6.11433 21.0635 6.20449C21.0935 6.2207 21.1235 6.2369 21.1544 6.2536C21.2187 6.28841 21.2828 6.32349 21.3467 6.35883C21.4471 6.41419 21.5481 6.46852 21.6494 6.52264C21.9674 6.69333 22.2808 6.86805 22.5883 7.05401C22.6389 7.08371 22.6896 7.1134 22.7417 7.14399C22.8356 7.19933 22.9282 7.25643 23.0192 7.3155C23.15 7.39165 23.2479 7.44146 23.4006 7.46834C23.6177 7.40941 23.7879 7.29972 23.9739 7.18474C24.0744 7.13194 24.1754 7.07987 24.2768 7.02853C24.3844 6.97236 24.4919 6.91611 24.5993 6.85977C24.6572 6.82946 24.7152 6.79915 24.7748 6.76792C25.0864 6.6046 25.3969 6.43977 25.7062 6.27299C25.7372 6.25629 25.7682 6.23958 25.8001 6.22237C25.9485 6.14229 26.0968 6.06202 26.245 5.98147C26.4081 5.89318 26.5719 5.8061 26.7361 5.71945C26.7657 5.70352 26.7952 5.6876 26.8256 5.67119C26.9155 5.62296 27.0061 5.57592 27.0967 5.5289C27.1766 5.48682 27.1766 5.48682 27.2581 5.44388C27.4452 5.37737 27.5349 5.38538 27.7264 5.43585Z" fill="#0F8F8A"/>
<path d="M23.3284 8.8048C23.4582 8.90933 23.5862 9.01536 23.7134 9.12256C23.7654 9.16588 23.7654 9.16588 23.8184 9.21008C24.1517 9.49883 24.427 9.82942 24.7036 10.1624C24.7377 10.2032 24.7377 10.2032 24.7725 10.2449C25.8348 11.5241 26.4688 12.9903 26.7883 14.5583C26.7981 14.6031 26.8079 14.648 26.8179 14.6942C26.9115 15.1679 26.911 15.6386 26.9088 16.1181C26.9087 16.1827 26.9087 16.1827 26.9085 16.2486C26.9062 16.8766 26.8865 17.488 26.7362 18.1034C26.7272 18.1417 26.7183 18.1799 26.7091 18.2194C26.1079 20.7434 24.4289 23.0176 22.0498 24.4502C20.4238 25.3964 18.4838 26.0396 16.5389 26.0555C16.492 26.056 16.4452 26.0565 16.3969 26.0569C15.4126 26.0646 14.4598 26.0701 13.4984 25.8552C13.4573 25.8466 13.4163 25.838 13.374 25.8291C12.4297 25.6291 11.5372 25.2755 10.6841 24.8626C10.5928 24.8191 10.5928 24.8191 10.4996 24.7747C9.30737 24.184 8.23865 23.3209 7.40068 22.3574C7.36125 22.3146 7.32181 22.2719 7.28118 22.2278C6.26268 21.0916 5.61244 19.7051 5.25084 18.2865C5.24296 18.2561 5.23508 18.2257 5.22696 18.1944C5.07296 17.5492 5.037 16.897 5.04238 16.2392C5.04255 16.2031 5.04273 16.1669 5.04292 16.1297C5.04598 15.6014 5.05478 15.0793 5.15964 14.5583C5.16777 14.5172 5.1759 14.4761 5.18427 14.4338C5.70742 11.8761 7.29243 9.58381 9.64172 8.08268C9.67217 8.06316 9.70262 8.04363 9.734 8.02352C10.9548 7.25238 12.3557 6.74145 13.8111 6.47559C13.8513 6.46792 13.8915 6.46025 13.9328 6.45234C17.2606 5.84509 20.7968 6.80393 23.3284 8.8048ZM13.2769 7.70749C13.2226 7.72155 13.1683 7.73561 13.1123 7.7501C11.5919 8.15998 10.3131 8.89156 9.17267 9.87884C9.12819 9.91667 9.08372 9.95451 9.0379 9.9935C8.23032 10.6993 7.60872 11.5588 7.1401 12.4785C7.11228 12.5324 7.08447 12.5863 7.05581 12.6418C6.7314 13.2973 6.49426 13.9923 6.35834 14.7001C6.34765 14.7515 6.33697 14.8028 6.32597 14.8558C6.08495 16.2381 6.27026 17.6273 6.72316 18.9542C6.74035 19.0046 6.74035 19.0046 6.75789 19.056C7.50302 21.1687 9.31271 22.9982 11.4627 24.0248C11.6353 24.1037 11.8105 24.1767 11.987 24.2481C12.0448 24.2719 12.0448 24.2719 12.1037 24.2961C13.3073 24.7838 14.5979 25.0249 15.9153 25.0162C15.9505 25.0161 15.9857 25.0159 16.022 25.0158C16.5602 25.0131 17.0851 24.9962 17.6157 24.9099C17.6698 24.9011 17.6698 24.9011 17.725 24.8922C20.2863 24.4629 22.5087 23.1261 23.9968 21.1964C24.7388 20.209 25.2618 19.132 25.5375 17.9616C25.5459 17.9275 25.5544 17.8935 25.5631 17.8584C26.0976 15.6272 25.4524 13.2418 24.1261 11.3378C23.8016 10.8842 23.4277 10.4697 23.0261 10.0709C23.002 10.0469 22.9779 10.0229 22.953 9.99817C21.533 8.61917 19.5435 7.77118 17.5114 7.4682C17.4566 7.45986 17.4018 7.45151 17.3453 7.44292C17.1142 7.41735 16.8881 7.41239 16.6556 7.41133C16.6087 7.41106 16.5618 7.41079 16.5135 7.41052C16.4143 7.41007 16.3152 7.40976 16.216 7.40958C16.0678 7.40912 15.9196 7.40766 15.7714 7.40616C14.9159 7.4016 14.1008 7.4934 13.2769 7.70749Z" fill="#FDFCFB"/>
<path d="M16.3128 -8.93705e-05C16.5708 0.0970003 16.801 0.227886 17.0359 0.363278C17.1028 0.400517 17.1698 0.437627 17.2368 0.474615C17.371 0.548833 17.5048 0.62364 17.6382 0.69902C17.8887 0.840247 18.143 0.975463 18.3975 1.11069C18.4879 1.15923 18.5783 1.20779 18.6686 1.25637C18.9032 1.38211 19.1384 1.50677 19.3738 1.63119C19.4437 1.66818 19.5136 1.70516 19.5835 1.74216C19.687 1.7969 19.7905 1.8516 19.894 1.90614C19.99 1.95665 20.0858 2.00735 20.1817 2.05807C20.2371 2.08733 20.2926 2.11659 20.3498 2.14673C20.4821 2.22148 20.4821 2.22148 20.5864 2.31601C20.6349 2.5433 20.6461 2.76578 20.6492 2.99685C20.6497 3.03009 20.6502 3.06334 20.6508 3.09759C20.6524 3.20627 20.6537 3.31496 20.655 3.42366C20.6561 3.49948 20.6572 3.57531 20.6583 3.65114C20.6611 3.84983 20.6637 4.04852 20.6662 4.24722C20.6689 4.45033 20.6718 4.65343 20.6746 4.85654C20.6802 5.2544 20.6855 5.65227 20.6906 6.05013C20.6168 6.07145 20.6168 6.07145 20.5415 6.09319C20.3833 6.14296 20.2839 6.19671 20.1519 6.28795C19.4205 6.75504 19.4205 6.75504 18.9555 6.68603C18.7412 6.63943 18.5363 6.57714 18.3288 6.51025C18.0633 6.42591 17.8334 6.4144 17.5536 6.42666C17.4072 6.42827 17.4072 6.42827 17.261 6.40575C17.0518 6.37466 16.8485 6.37246 16.6369 6.3714C16.593 6.37107 16.5491 6.37074 16.5038 6.3704C16.362 6.36957 16.2201 6.36927 16.0782 6.36919C16.0058 6.36914 16.0058 6.36914 15.9318 6.36909C15.2145 6.36985 14.5153 6.38725 13.8111 6.52281C13.7681 6.53092 13.7251 6.53903 13.6807 6.54739C12.003 6.87362 10.4669 7.52541 9.12201 8.48976C8.93291 8.62497 8.74041 8.75575 8.54729 8.88617C8.54342 8.69356 8.54059 8.50096 8.5387 8.30831C8.53792 8.2428 8.53685 8.17728 8.5355 8.11177C8.5336 8.01756 8.5328 7.92334 8.53202 7.82912C8.53079 7.74409 8.53079 7.74409 8.52954 7.65735C8.54729 7.51542 8.54729 7.51542 8.60709 7.43552C8.73853 7.35125 8.87351 7.27706 9.01289 7.20394C9.04343 7.18782 9.07396 7.1717 9.10543 7.15509C9.20482 7.10267 9.30439 7.05055 9.40397 6.99843C9.54111 6.92628 9.67816 6.85398 9.81521 6.78167C9.84929 6.76371 9.88336 6.74576 9.91848 6.72726C10.2665 6.5436 10.6111 6.35491 10.9542 6.16379C11.0127 6.13157 11.0127 6.13157 11.0723 6.09869C11.1058 6.08004 11.1393 6.0614 11.1739 6.04218C11.2574 6.00287 11.2574 6.00287 11.3616 6.00287C11.3606 5.95731 11.3595 5.91175 11.3585 5.86481C11.349 5.43503 11.3419 5.00528 11.3373 4.57544C11.3349 4.35446 11.3316 4.13354 11.3262 3.9126C11.3211 3.69929 11.3183 3.48604 11.3171 3.27268C11.3163 3.19137 11.3146 3.11007 11.312 3.02879C11.293 2.39352 11.293 2.39352 11.4574 2.20787C11.5787 2.133 11.6948 2.08199 11.8307 2.03241C11.888 2.00066 11.9454 1.96891 12.0045 1.9362C12.058 1.90793 12.1116 1.87966 12.1668 1.85054C12.1966 1.83477 12.2263 1.81901 12.257 1.80277C12.3526 1.75216 12.4483 1.70174 12.544 1.65131C12.6454 1.5977 12.7468 1.54403 12.8482 1.49037C12.9161 1.45444 12.984 1.41853 13.0519 1.38264C13.3492 1.22534 13.6454 1.06623 13.9414 0.906853C15.7647 -0.0731652 15.7647 -0.0731652 16.3128 -8.93705e-05Z" fill="#26AE9B"/>
<path d="M10.4296 10.5703C10.4788 10.5701 10.528 10.5699 10.5788 10.5697C10.7444 10.5693 10.91 10.5698 11.0757 10.5704C11.1942 10.5703 11.3126 10.5701 11.4311 10.5699C11.7534 10.5694 12.0756 10.5699 12.3979 10.5705C12.7346 10.571 13.0713 10.5708 13.4079 10.5708C13.9733 10.5707 14.5388 10.5712 15.1042 10.5721C15.6863 10.573 16.2685 10.5733 16.8506 10.5731C17.5516 10.5728 18.2527 10.5729 18.9537 10.5735C19.2217 10.5737 19.4897 10.5738 19.7577 10.5737C20.073 10.5736 20.3883 10.574 20.7036 10.5747C20.8196 10.5749 20.9357 10.575 21.0517 10.5748C21.2095 10.5747 21.3672 10.5751 21.525 10.5757C21.5714 10.5755 21.6179 10.5753 21.6657 10.5751C21.9816 10.5772 21.9816 10.5772 22.0978 10.6825C22.1344 10.791 22.1344 10.791 22.1678 10.9282C22.1869 11.0051 22.1869 11.0051 22.2063 11.0835C22.2196 11.1392 22.2329 11.1948 22.2466 11.2521C22.2604 11.3092 22.2743 11.3662 22.2886 11.4249C22.3253 11.5767 22.3616 11.7285 22.3979 11.8804C22.4202 11.9733 22.4428 12.0661 22.4656 12.1589C22.5093 12.3371 22.5523 12.5154 22.5951 12.6938C22.6087 12.7491 22.6224 12.8045 22.6364 12.8615C22.6486 12.9132 22.6608 12.965 22.6733 13.0183C22.6842 13.0636 22.6952 13.109 22.7064 13.1558C22.7242 13.2903 22.7114 13.3886 22.6711 13.5186C22.572 13.6084 22.4267 13.5715 22.2949 13.5717C22.2483 13.5716 22.2017 13.5714 22.1537 13.5712C22.1049 13.5712 22.0561 13.5712 22.0058 13.5712C21.8437 13.5712 21.6815 13.5708 21.5194 13.5705C21.4073 13.5704 21.2952 13.5703 21.1831 13.5703C20.8874 13.5701 20.5917 13.5696 20.296 13.5691C19.9416 13.5685 19.5872 13.5683 19.2327 13.568C18.6937 13.5676 18.1547 13.5667 17.6157 13.5658C17.6157 14.8449 17.6157 16.124 17.6157 17.4418C17.2035 17.6287 16.5628 17.5435 16.1082 17.5425C15.9811 17.5422 15.854 17.5425 15.7268 17.5428C15.6438 17.5427 15.5607 17.5427 15.4777 17.5426C15.4223 17.5427 15.4223 17.5427 15.3659 17.5429C15.0175 17.5415 14.6829 17.5135 14.3323 17.489C14.3323 16.1944 14.3323 14.8997 14.3323 13.5658C13.7923 13.5675 13.7923 13.5675 13.2415 13.5692C13.014 13.5696 12.7864 13.5701 12.5589 13.5705C12.1974 13.571 11.836 13.5717 11.4745 13.573C11.1832 13.574 10.8919 13.5746 10.6007 13.5748C10.4893 13.575 10.378 13.5753 10.2666 13.5758C10.1111 13.5765 9.95565 13.5766 9.80015 13.5766C9.75374 13.5769 9.70733 13.5773 9.65952 13.5776C9.34092 13.5766 9.34092 13.5766 9.2248 13.4713C9.21487 13.1354 9.31602 12.7884 9.39052 12.4612C9.40164 12.4118 9.41276 12.3624 9.42422 12.3116C9.44765 12.2082 9.47122 12.1048 9.49493 12.0014C9.53112 11.8429 9.56639 11.6843 9.60163 11.5257C9.62458 11.4249 9.64758 11.3241 9.67065 11.2233C9.68108 11.1759 9.69151 11.1285 9.70225 11.0797C9.71251 11.0358 9.72276 10.9919 9.73333 10.9467C9.74646 10.8888 9.74646 10.8888 9.75985 10.8298C9.87263 10.5348 10.1298 10.5681 10.4296 10.5703Z" fill="#FEFDFB"/>
<path d="M26.1108 19.9468C26.128 19.978 26.1452 20.0092 26.1629 20.0413C26.114 20.1418 26.114 20.1418 26.0587 20.2304C26.1045 20.243 26.1503 20.2556 26.1976 20.2686C26.3644 20.3227 26.4994 20.3859 26.6503 20.4693C26.7033 20.4984 26.7564 20.5276 26.8111 20.5576C26.8933 20.6033 26.8933 20.6033 26.9772 20.6499C27.0843 20.7089 27.1914 20.7678 27.2985 20.8268C27.3556 20.861 27.4127 20.8951 27.4715 20.9304C27.6255 21.0169 27.7737 21.064 27.947 21.1107C28.2744 21.2147 28.5287 21.3275 28.7166 21.6011C28.9287 22.2097 28.8391 22.9238 28.8156 23.5518C28.8096 23.7478 28.8093 23.9437 28.8092 24.1398C28.8086 24.3288 28.8056 24.5178 28.8017 24.7069C28.8 24.7971 28.7988 24.8874 28.7981 24.9777C28.7897 25.6766 28.7897 25.6766 28.6181 25.8739C28.4972 25.9485 28.3838 25.9971 28.2476 26.0443C28.1921 26.0758 28.1366 26.1073 28.0794 26.1397C28.0283 26.1677 27.9773 26.1957 27.9247 26.2245C27.8665 26.2564 27.8084 26.2884 27.7484 26.3213C27.6868 26.355 27.6252 26.3887 27.5635 26.4224C27.4987 26.458 27.4338 26.4936 27.369 26.5292C27.2378 26.6012 27.1067 26.6731 26.9755 26.7451C26.7075 26.8921 26.4401 27.0398 26.1727 27.1875C26.125 27.2138 26.0773 27.2401 26.0282 27.2672C25.7703 27.4094 25.513 27.5523 25.2561 27.696C25.2013 27.7266 25.1465 27.7572 25.09 27.7887C24.9846 27.8474 24.8794 27.9064 24.7744 27.9656C24.7272 27.9918 24.68 28.0181 24.6313 28.0452C24.5691 28.0801 24.5691 28.0801 24.5056 28.1157C24.3942 28.1697 24.3076 28.2043 24.1824 28.2186C24.0593 28.1613 23.9514 28.1022 23.8372 28.0324C23.762 27.9882 23.6868 27.9441 23.6116 27.9001C23.5491 27.8632 23.5491 27.8632 23.4853 27.8255C23.2272 27.6752 22.9651 27.5308 22.7036 27.3855C22.5867 27.3202 22.4698 27.255 22.3528 27.1898C22.1429 27.0727 21.9327 26.9558 21.7224 26.8393C20.5703 26.2006 20.5703 26.2006 20.084 25.8985C19.8036 25.7246 19.6677 25.6498 19.3225 25.6839C19.2663 25.6891 19.2102 25.6943 19.1523 25.6997C19.1096 25.7042 19.0668 25.7087 19.0228 25.7134C19.1605 25.6301 19.2619 25.5878 19.4159 25.5402C19.4629 25.5254 19.5099 25.5106 19.5583 25.4953C19.6334 25.4717 19.6334 25.4717 19.7101 25.4475C20.2158 25.2846 20.6875 25.0928 21.1596 24.8626C21.2113 24.8383 21.263 24.8141 21.3162 24.7891C23.518 23.7381 25.0563 21.95 26.1108 19.9468Z" fill="#046F6E"/>
<path d="M5.83707 19.9941C5.98426 20.1562 6.07976 20.3349 6.17909 20.5229C6.53548 21.1804 6.93633 21.7929 7.45271 22.3575C7.47758 22.3849 7.50246 22.4122 7.52809 22.4404C8.02685 22.9862 8.55298 23.4821 9.17258 23.9173C9.20167 23.9379 9.23076 23.9584 9.26073 23.9796C9.93237 24.4507 10.652 24.8095 11.4136 25.1463C11.3964 25.4582 11.3792 25.7702 11.3615 26.0916C11.4647 26.0448 11.5679 25.998 11.6742 25.9498C11.7086 25.9654 11.743 25.981 11.7784 25.9971C11.6753 26.1063 11.5721 26.2155 11.4657 26.328C11.4485 26.2812 11.4313 26.2344 11.4136 26.1862C10.9134 26.4361 10.4293 26.7067 9.94606 26.9825C9.44824 27.2661 8.94613 27.543 8.44301 27.8188C8.41285 27.8354 8.38269 27.8519 8.35161 27.869C8.26968 27.9139 8.18771 27.9587 8.10574 28.0036C8.00839 28.0577 7.91252 28.114 7.81753 28.1714C7.59393 28.1569 7.43924 28.1032 7.25055 27.9964C7.17942 27.9566 7.17942 27.9566 7.10686 27.916C7.05653 27.8872 7.0062 27.8584 6.95434 27.8287C6.90129 27.7989 6.84823 27.769 6.79357 27.7383C6.68379 27.6765 6.57414 27.6145 6.46462 27.5523C6.27679 27.4457 6.08831 27.3401 5.89977 27.2345C5.76672 27.16 5.63383 27.0852 5.50096 27.0104C5.28831 26.8908 5.07531 26.7717 4.86212 26.6529C4.81721 26.6279 4.81721 26.6279 4.77139 26.6024C4.62535 26.521 4.47927 26.4396 4.33314 26.3584C3.31971 25.7938 3.31971 25.7938 3.23121 25.7135C3.22348 25.5858 3.21914 25.4593 3.21702 25.3315C3.21618 25.2915 3.21533 25.2515 3.21446 25.2102C3.20715 24.8401 3.20308 24.4699 3.19993 24.0997C3.19779 23.8509 3.19465 23.6022 3.18903 23.3535C3.18362 23.1131 3.18078 22.8729 3.17973 22.6325C3.1789 22.5409 3.17717 22.4494 3.17451 22.3578C3.15469 21.6404 3.15469 21.6404 3.34484 21.4256C3.47791 21.3398 3.60196 21.2797 3.75238 21.2231C3.80855 21.1923 3.86471 21.1614 3.92258 21.1297C3.97391 21.104 4.02523 21.0782 4.07812 21.0517C4.41872 20.8789 4.75522 20.7002 5.09115 20.52C5.14165 20.493 5.19216 20.4659 5.24419 20.4381C5.61112 20.2724 5.61112 20.2724 5.83707 19.9941Z" fill="#11908C"/>
<path d="M5.73287 12.5259C5.7912 12.6846 5.78162 12.708 5.71943 12.8571C5.70412 12.8954 5.68881 12.9337 5.67304 12.9731C5.65624 13.0146 5.63943 13.0562 5.62212 13.099C5.47221 13.4872 5.35845 13.8742 5.27033 14.2777C5.25977 14.3254 5.24922 14.3731 5.23834 14.4222C5.11424 15.0145 5.09496 15.6057 5.09443 16.2068C5.0944 16.2432 5.09436 16.2796 5.09433 16.3171C5.09605 17.4465 5.28505 18.5338 5.73914 19.5898C5.88938 19.9478 5.88938 19.9478 5.8371 20.1359C5.69436 20.2517 5.5343 20.3343 5.36805 20.4195C5.33046 20.4397 5.29287 20.4599 5.25414 20.4807C5.14076 20.5411 5.02652 20.6001 4.91202 20.6588C4.47921 20.8826 4.05573 21.1184 3.63601 21.3618C3.5922 21.3869 3.54838 21.412 3.50323 21.4378C3.4645 21.4602 3.42577 21.4827 3.38586 21.5058C3.28336 21.5539 3.28336 21.5539 3.12701 21.5539C2.99881 21.493 2.87609 21.4297 2.75241 21.3619C2.71412 21.3412 2.67583 21.3205 2.63638 21.2991C2.13247 21.0248 1.63541 20.7402 1.13795 20.4564C1.00108 20.3785 0.863997 20.3009 0.726762 20.2234C0.687733 20.2014 0.648704 20.1794 0.608493 20.1567C0.536952 20.1163 0.465386 20.076 0.393789 20.0358C0.162127 19.9049 0.162127 19.9049 0.104205 19.8523C0.0967443 19.7186 0.0926807 19.5861 0.0908448 19.4523C0.0900838 19.4103 0.0893227 19.3683 0.0885386 19.3251C0.0819671 18.9375 0.0783887 18.5498 0.0756218 18.1622C0.0737572 17.9016 0.0709777 17.641 0.0659568 17.3804C0.0611214 17.1288 0.0585837 16.8771 0.0576727 16.6254C0.0569377 16.5295 0.0553921 16.4335 0.053019 16.3376C0.035344 15.5864 0.0353438 15.5864 0.202583 15.3856C0.324168 15.3107 0.435016 15.2642 0.57326 15.2201C0.620595 15.1932 0.667929 15.1662 0.716697 15.1384C0.776399 15.1058 0.776399 15.1058 0.837308 15.0726C0.883508 15.0473 0.929709 15.0219 0.977309 14.9958C1.02563 14.9694 1.07396 14.943 1.12375 14.9158C1.57073 14.6703 2.01591 14.4223 2.45925 14.1714C2.51247 14.1413 2.56568 14.1113 2.6205 14.0804C2.67015 14.0522 2.71979 14.0241 2.77094 13.995C2.81462 13.9703 2.8583 13.9455 2.90331 13.92C3.02314 13.851 3.02314 13.851 3.1325 13.7734C3.24482 13.6985 3.36246 13.6547 3.49094 13.6069C3.69998 13.5251 3.8997 13.4258 4.10095 13.3294C4.14802 13.307 4.1951 13.2845 4.2436 13.2614C4.74356 13.0221 5.23875 12.775 5.73287 12.5259Z" fill="#27AF9C"/>
<path d="M26.1628 12.4785C26.1833 12.5 26.2037 12.5214 26.2247 12.5435C26.314 12.6251 26.314 12.6251 26.4283 12.6591C26.6325 12.7343 26.8208 12.8302 27.013 12.9276C27.0537 12.9482 27.0945 12.9688 27.1364 12.9901C27.4254 13.1377 27.711 13.2898 27.9934 13.4475C28.0295 13.4674 28.0656 13.4873 28.1028 13.5078C28.1877 13.5559 28.2701 13.6077 28.3518 13.6602C28.3518 13.6914 28.3518 13.7226 28.3518 13.7547C28.3978 13.752 28.4439 13.7492 28.4913 13.7464C28.6867 13.7558 28.7698 13.7935 28.9328 13.8886C29.0102 13.9329 29.0102 13.9329 29.0892 13.9781C29.1447 14.0107 29.2002 14.0432 29.2573 14.0767C29.3776 14.1457 29.498 14.2146 29.6184 14.2834C29.6501 14.3015 29.6818 14.3197 29.7144 14.3383C30.1517 14.5881 30.5983 14.824 31.0439 15.0612C31.1493 15.1174 31.2546 15.1737 31.3599 15.23C31.3915 15.2468 31.4232 15.2635 31.4558 15.2808C31.5816 15.3481 31.6877 15.4095 31.7915 15.5036C31.8038 15.6416 31.8095 15.7752 31.8108 15.9134C31.8115 15.9558 31.8123 15.9983 31.8131 16.042C31.8154 16.1828 31.8169 16.3236 31.8182 16.4645C31.8187 16.5125 31.8191 16.5606 31.8196 16.6101C31.8221 16.8645 31.8239 17.1189 31.8251 17.3733C31.8266 17.6361 31.8307 17.8989 31.8354 18.1616C31.8385 18.3637 31.8396 18.5657 31.8401 18.7677C31.8407 18.8646 31.8421 18.9614 31.8443 19.0583C31.8605 19.8149 31.8605 19.8149 31.6957 20.0169C31.5735 20.0924 31.4614 20.1383 31.3224 20.1831C31.2645 20.2151 31.2066 20.2471 31.147 20.2801C31.0928 20.3086 31.0385 20.3372 30.9827 20.3666C30.9526 20.3825 30.9225 20.3985 30.8915 20.4149C30.8278 20.4485 30.7642 20.4821 30.7005 20.5156C30.5334 20.6035 30.3667 20.6919 30.1999 20.7802C30.1668 20.7977 30.1337 20.8153 30.0995 20.8333C29.7552 21.0158 29.4132 21.2018 29.0718 21.3888C29.0328 21.4101 28.9939 21.4314 28.9537 21.4534C28.9202 21.4718 28.8867 21.4902 28.8522 21.5092C28.791 21.5419 28.7281 21.5723 28.6645 21.6011C28.5687 21.5634 28.5687 21.5634 28.4515 21.5016C28.4078 21.4788 28.3641 21.4559 28.319 21.4324C28.2718 21.4071 28.2245 21.3819 28.1759 21.3559C28.1273 21.3304 28.0787 21.3048 28.0286 21.2784C27.6449 21.0758 27.2636 20.8694 26.884 20.6604C26.6123 20.5111 26.3374 20.3685 26.0586 20.2304C26.1221 19.9019 26.2169 19.5943 26.3355 19.2791C26.475 18.8951 26.5871 18.5111 26.6775 18.1151C26.6881 18.0691 26.6986 18.023 26.7095 17.9755C27.0768 16.2997 26.9378 14.3135 26.2098 12.7322C26.1628 12.6203 26.1628 12.6203 26.1628 12.4785Z" fill="#0A8582"/>
<path d="M13.8632 15.3145C13.8632 15.4861 13.8632 15.6577 13.8632 15.8345C13.8134 15.8404 13.7636 15.8463 13.7123 15.8524C11.7879 15.9953 11.7879 15.9953 10.1107 16.7326C10.0542 16.8939 10.0542 16.8939 10.1107 17.0634C10.8383 17.8538 12.7685 17.9121 13.8176 18C14.4813 18.0521 15.1401 18.0708 15.8062 18.0684C15.9739 18.0679 16.1415 18.0684 16.3092 18.069C17.2933 18.0696 18.275 18.0174 19.2475 17.8758C19.3314 17.8638 19.3314 17.8638 19.4169 17.8516C20.7371 17.6745 20.7371 17.6745 21.8371 17.0634C21.9104 16.925 21.9104 16.925 21.8892 16.7798C21.1882 16.0179 19.4151 15.9933 18.4118 15.8964C18.2931 15.8818 18.2931 15.8818 18.0847 15.8345C18.0847 15.6629 18.0847 15.4913 18.0847 15.3145C19.6722 15.3966 21.8668 15.5833 23.0879 16.638C23.2363 16.804 23.2733 16.9443 23.2618 17.1593C23.2007 17.4846 22.8477 17.7325 22.5668 17.9142C21.1685 18.6665 19.2168 18.9617 17.6156 18.9541C17.6158 19.0089 17.6161 19.0636 17.6163 19.1201C17.6184 19.6354 17.62 20.1508 17.621 20.6662C17.6216 20.9312 17.6223 21.1962 17.6235 21.4612C17.6246 21.7168 17.6252 21.9724 17.6255 22.228C17.6257 22.3256 17.6261 22.4233 17.6266 22.5209C17.6274 22.6574 17.6275 22.7939 17.6274 22.9304C17.6278 22.971 17.6282 23.0116 17.6286 23.0534C17.6275 23.3338 17.6275 23.3338 17.5114 23.4918C17.353 23.5397 17.2433 23.5459 17.0775 23.5474C17.0208 23.548 16.964 23.5486 16.9056 23.5493C16.8138 23.5498 16.8138 23.5498 16.7201 23.5503C16.6257 23.5509 16.6257 23.5509 16.5294 23.5515C16.3963 23.5521 16.2631 23.5526 16.13 23.553C15.9261 23.5538 15.7221 23.5559 15.5182 23.558C15.389 23.5585 15.2597 23.5589 15.1305 23.5592C15.0693 23.56 15.0082 23.5608 14.9452 23.5617C14.8884 23.5616 14.8315 23.5614 14.7729 23.5613C14.7229 23.5616 14.6729 23.5618 14.6214 23.5621C14.4886 23.5391 14.4886 23.5391 14.3681 23.4697C14.2371 23.2915 14.2526 23.1347 14.2564 22.925C14.2564 22.8821 14.2564 22.8392 14.2563 22.795C14.2565 22.6533 14.2581 22.5116 14.2597 22.3699C14.2601 22.2716 14.2604 22.1734 14.2606 22.0751C14.2614 21.8165 14.2635 21.5579 14.2658 21.2993C14.2679 21.0353 14.2689 20.7714 14.2699 20.5075C14.2722 19.9897 14.2757 19.4719 14.2801 18.9541C14.2479 18.9542 14.2158 18.9544 14.1826 18.9545C14.1404 18.9546 14.0982 18.9547 14.0546 18.9548C14.0128 18.9549 13.9709 18.955 13.9278 18.9551C13.798 18.954 13.6721 18.9448 13.5433 18.9298C13.4967 18.9243 13.45 18.9189 13.4019 18.9134C13.3531 18.9073 13.3043 18.9013 13.254 18.895C13.202 18.8887 13.15 18.8823 13.0964 18.8757C9.75971 18.4556 9.75971 18.4556 8.8477 17.5099C8.69325 17.3159 8.68161 17.1565 8.70356 16.9216C9.03576 16.3191 9.79665 16.0563 10.4603 15.8504C11.5378 15.5352 12.7257 15.2823 13.8632 15.3145Z" fill="#FDFCFB"/>
<path d="M15.9479 0C16.2968 0 16.3642 0.00326457 16.6386 0.154173C16.6685 0.170328 16.6984 0.186484 16.7292 0.203129C16.8265 0.255878 16.923 0.309612 17.0195 0.363368C17.0876 0.400552 17.1558 0.437663 17.224 0.474705C17.3609 0.549156 17.4975 0.623962 17.634 0.699109C17.8871 0.838417 18.1422 0.974593 18.3974 1.11078C18.4878 1.15934 18.5782 1.2079 18.6686 1.25646C18.9031 1.3822 19.1384 1.50686 19.3738 1.63128C19.4437 1.66826 19.5136 1.70525 19.5835 1.74225C19.6869 1.79699 19.7904 1.85169 19.894 1.90623C19.9899 1.95674 20.0858 2.00744 20.1816 2.05816C20.2648 2.10205 20.2648 2.10205 20.3497 2.14682C20.4821 2.22157 20.4821 2.22157 20.5863 2.3161C20.6348 2.54339 20.646 2.76587 20.6491 2.99694C20.6496 3.03018 20.6502 3.06343 20.6507 3.09768C20.6523 3.20636 20.6536 3.31505 20.6549 3.42374C20.656 3.49957 20.6571 3.5754 20.6582 3.65123C20.6611 3.84992 20.6636 4.04861 20.6662 4.24731C20.6688 4.45042 20.6717 4.65352 20.6746 4.85663C20.6801 5.25449 20.6854 5.65235 20.6905 6.05022C20.6413 6.06443 20.5921 6.07864 20.5414 6.09328C20.3833 6.14305 20.2838 6.1968 20.1519 6.28804C19.4204 6.75513 19.4204 6.75513 18.9554 6.68612C18.7411 6.63951 18.5362 6.57723 18.3288 6.51034C18.0632 6.42599 17.8333 6.41449 17.5535 6.42674C17.4072 6.42836 17.4072 6.42836 17.2635 6.40617C17.0408 6.37314 16.8217 6.37008 16.5965 6.36614C16.526 6.36466 16.526 6.36466 16.4541 6.36316C16.3049 6.36009 16.1557 6.35729 16.0065 6.35451C15.905 6.35246 15.8035 6.3504 15.7019 6.34832C15.4538 6.34328 15.2057 6.33848 14.9576 6.33383C14.9576 6.31823 14.9576 6.30263 14.9576 6.28656C15.298 6.23996 15.5949 6.23929 15.9479 6.23929C15.9479 5.58417 15.9479 4.92904 15.9479 4.25406C15.7587 4.25406 15.5695 4.25406 15.3746 4.25406C15.3746 3.8797 15.3746 3.50535 15.3746 3.11965C15.5638 3.11965 15.753 3.11965 15.9479 3.11965C15.9479 2.09016 15.9479 1.06068 15.9479 0Z" fill="#0FA498"/>
<path d="M11.3616 2.31616C11.396 2.33176 11.4304 2.34736 11.4659 2.36343C11.4659 3.58009 11.4659 4.79675 11.4659 6.05028C12.4057 6.61818 12.4057 6.61818 12.9251 6.66476C12.7944 6.7438 12.7125 6.78126 12.5676 6.82262C11.2994 7.19745 10.1674 7.74035 9.12201 8.48991C8.93291 8.62512 8.74041 8.7559 8.54729 8.88632C8.54342 8.69371 8.54059 8.50111 8.5387 8.30846C8.53792 8.24295 8.53685 8.17743 8.5355 8.11192C8.5336 8.01771 8.5328 7.92349 8.53202 7.82927C8.53079 7.74424 8.53079 7.74424 8.52954 7.6575C8.54729 7.51557 8.54729 7.51557 8.60709 7.43567C8.73853 7.3514 8.87351 7.27721 9.01289 7.20409C9.04343 7.18797 9.07396 7.17185 9.10543 7.15524C9.20482 7.10282 9.30439 7.0507 9.40397 6.99858C9.54111 6.92643 9.67816 6.85413 9.81521 6.78182C9.84929 6.76386 9.88336 6.74591 9.91848 6.72741C10.2665 6.54375 10.6111 6.35506 10.9542 6.16394C10.9932 6.14246 11.0322 6.12098 11.0723 6.09884C11.1058 6.08019 11.1393 6.06155 11.1739 6.04233C11.2574 6.00302 11.2574 6.00302 11.3616 6.00302C11.3616 4.78635 11.3616 3.56969 11.3616 2.31616Z" fill="#11918B"/>
<path d="M20.7426 6.05026C20.8987 6.11427 20.8987 6.11427 21.0635 6.20443C21.1085 6.22863 21.1085 6.22863 21.1545 6.25331C21.286 6.32425 21.4163 6.39696 21.5467 6.46966C21.6485 6.52642 21.7504 6.58299 21.8524 6.63944C21.8862 6.65822 21.92 6.67701 21.9548 6.69636C22.1669 6.8122 22.3799 6.90831 22.6085 6.99579C23.2234 7.24262 23.2234 7.24262 23.4006 7.46828C23.5332 7.91365 23.4713 8.38806 23.4006 8.83904C23.2246 8.74559 23.0659 8.64634 22.9082 8.52875C21.3782 7.39197 19.5449 6.75713 17.6156 6.4284C17.6156 6.4128 17.6156 6.3972 17.6156 6.38113C17.962 6.36674 18.2611 6.41917 18.5961 6.49635C18.6451 6.50722 18.6941 6.5181 18.7446 6.5293C18.9265 6.57 19.1055 6.61097 19.2834 6.66474C19.4074 6.61372 19.4074 6.61372 19.5384 6.53494C19.5883 6.50706 19.6381 6.47918 19.6894 6.45046C19.7939 6.39076 19.8982 6.33094 20.0025 6.271C20.0525 6.24306 20.1025 6.21512 20.1541 6.18634C20.1995 6.1603 20.2449 6.13425 20.2917 6.10742C20.4596 6.03799 20.5596 6.0294 20.7426 6.05026Z" fill="#0A7A78"/>
<path d="M5.73296 12.5259C5.79144 12.685 5.78106 12.7102 5.71952 12.8604C5.70421 12.8992 5.6889 12.938 5.67312 12.978C5.65632 13.0199 5.63952 13.0618 5.62221 13.1049C5.41416 13.6429 5.28022 14.1887 5.15967 14.7474C5.14247 14.7474 5.12527 14.7474 5.10755 14.7474C5.10755 14.6695 5.10755 14.5915 5.10755 14.5111C5.07022 14.4987 5.0329 14.4863 4.99444 14.4736C4.84113 14.4143 4.71162 14.3434 4.57213 14.2609C4.49473 14.2163 4.49473 14.2163 4.41578 14.1707C4.30802 14.1081 4.20066 14.045 4.09371 13.9813C3.78519 13.7905 3.78519 13.7905 3.42799 13.7583C3.38029 13.7728 3.33259 13.7872 3.28345 13.8021C3.42418 13.6647 3.55354 13.5732 3.73784 13.4888C3.78598 13.4664 3.83411 13.4441 3.8837 13.4211C3.96065 13.3859 3.96065 13.3859 4.03915 13.3501C4.14676 13.3002 4.25432 13.2501 4.36183 13.2C4.41632 13.1746 4.47081 13.1492 4.52696 13.1231C4.78243 13.0025 5.03473 12.8769 5.2867 12.7504C5.33172 12.7278 5.37673 12.7052 5.42311 12.682C5.52645 12.63 5.62974 12.578 5.73296 12.5259Z" fill="#0D8F8B"/>
<path d="M26.1628 12.4785C26.1833 12.5 26.2037 12.5214 26.2247 12.5435C26.314 12.6251 26.314 12.6251 26.4283 12.6591C26.6325 12.7343 26.8208 12.8302 27.013 12.9276C27.0537 12.9481 27.0945 12.9687 27.1365 12.9898C27.5503 13.2007 27.9521 13.4281 28.3518 13.6602C28.1225 13.8378 27.8732 13.9749 27.6156 14.1151C27.5319 14.161 27.4481 14.207 27.3644 14.2529C27.3276 14.273 27.2907 14.2931 27.2528 14.3137C27.1662 14.3619 27.0813 14.4126 26.9967 14.4637C26.9451 14.4637 26.8935 14.4637 26.8404 14.4637C26.8404 14.5573 26.8404 14.6509 26.8404 14.7473C26.7572 14.6098 26.7129 14.4857 26.6799 14.3319C26.6701 14.2878 26.6603 14.2437 26.6502 14.1982C26.6398 14.1513 26.6295 14.1044 26.6189 14.0561C26.5272 13.6536 26.4138 13.2671 26.2608 12.8802C26.2053 12.7395 26.1628 12.6293 26.1628 12.4785Z" fill="#04706F"/>
<path d="M15.3746 3.11963C15.7702 3.11963 16.1658 3.11963 16.5733 3.11963C16.5733 3.49399 16.5733 3.86834 16.5733 4.25405C16.1778 4.25405 15.7822 4.25405 15.3746 4.25405C15.3746 3.87969 15.3746 3.50533 15.3746 3.11963Z" fill="#068C83"/>
<path d="M26.8925 8.6499C27.2708 8.6499 27.6492 8.6499 28.039 8.6499C28.039 9.02426 28.039 9.39862 28.039 9.78432C27.6607 9.78432 27.2823 9.78432 26.8925 9.78432C26.8925 9.40996 26.8925 9.0356 26.8925 8.6499Z" fill="#047574"/>
<path d="M15.3746 27.4624C15.753 27.4624 16.1314 27.4624 16.5212 27.4624C16.5212 27.8212 16.5212 28.1799 16.5212 28.5496C16.1428 28.5496 15.7645 28.5496 15.3746 28.5496C15.3746 28.1908 15.3746 27.832 15.3746 27.4624Z" fill="#026E6D"/>
<path d="M3.90881 8.6499C4.26999 8.6499 4.63116 8.6499 5.00328 8.6499C5.00328 9.02426 5.00328 9.39862 5.00328 9.78432C4.6421 9.78432 4.28093 9.78432 3.90881 9.78432C3.90881 9.40996 3.90881 9.0356 3.90881 8.6499Z" fill="#078982"/>
<path d="M2.29321 16.8745C2.63719 16.8745 2.98116 16.8745 3.33556 16.8745C3.33556 17.2021 3.33556 17.5296 3.33556 17.8671C2.99158 17.8671 2.64761 17.8671 2.29321 17.8671C2.29321 17.5396 2.29321 17.212 2.29321 16.8745Z" fill="#078982"/>
<path d="M5.99353 23.4919C6.3375 23.4919 6.68148 23.4919 7.03588 23.4919C7.03588 23.8039 7.03588 24.1159 7.03588 24.4373C6.6919 24.4373 6.34793 24.4373 5.99353 24.4373C5.99353 24.1253 5.99353 23.8134 5.99353 23.4919Z" fill="#057A77"/>
<path d="M23.2965 7.51562C23.3309 7.51562 23.3652 7.51562 23.4007 7.51562C23.4007 7.95238 23.4007 8.38913 23.4007 8.83911C23.1081 8.67992 23.1081 8.67992 22.9715 8.57969C22.9418 8.55811 22.9121 8.53653 22.8815 8.5143C22.8507 8.49183 22.82 8.46935 22.7883 8.4462C22.5149 8.24855 22.2379 8.06239 21.9414 7.89376C21.9758 7.87817 22.0102 7.86257 22.0456 7.8465C22.0854 7.86989 22.1252 7.89329 22.1662 7.9174C22.2975 7.99961 22.2975 7.99961 22.4288 7.97796C22.5827 7.93678 22.6959 7.87784 22.8307 7.79923C22.9861 7.70884 23.1139 7.64075 23.2965 7.61016C23.2965 7.57896 23.2965 7.54777 23.2965 7.51562Z" fill="#046361"/>
<path d="M20.4821 2.31616C20.5165 2.31616 20.5509 2.31616 20.5863 2.31616C20.6268 2.54482 20.646 2.76552 20.6491 2.997C20.6496 3.03025 20.6502 3.06349 20.6507 3.09774C20.6523 3.20643 20.6536 3.31511 20.6549 3.42381C20.656 3.49964 20.6571 3.57546 20.6582 3.65129C20.6611 3.84998 20.6636 4.04868 20.6662 4.24737C20.6688 4.45048 20.6717 4.65358 20.6746 4.85669C20.6802 5.25455 20.6854 5.65242 20.6905 6.05028C20.6132 6.07368 20.6132 6.07368 20.5342 6.09755C20.471 5.91906 20.4751 5.74259 20.4762 5.55725C20.4762 5.52219 20.4761 5.48712 20.4761 5.45099C20.4762 5.33539 20.4766 5.2198 20.477 5.1042C20.4771 5.02393 20.4772 4.94366 20.4772 4.86339C20.4774 4.65234 20.4779 4.44129 20.4785 4.23024C20.479 4.01479 20.4793 3.79934 20.4795 3.58389C20.4801 3.16131 20.481 2.73874 20.4821 2.31616Z" fill="#53B6AE"/>
<path d="M20.5342 25.1462C20.5686 25.1618 20.603 25.1774 20.6385 25.1935C20.6213 25.2091 20.6041 25.2247 20.5863 25.2408C20.5782 25.3041 20.5733 25.3678 20.5699 25.4315C20.5677 25.4697 20.5655 25.508 20.5632 25.5474C20.5612 25.5876 20.5591 25.6277 20.557 25.6691C20.5548 25.7095 20.5525 25.7499 20.5502 25.7915C20.5447 25.8915 20.5394 25.9915 20.5342 26.0916C20.6632 26.1384 20.6632 26.1384 20.7948 26.1861C20.7432 26.2017 20.6916 26.2173 20.6385 26.2334C20.5034 26.1613 20.3783 26.0878 20.2508 26.0059C20.1815 25.9622 20.1121 25.9185 20.0426 25.875C20.0119 25.8554 19.9812 25.8358 19.9497 25.8156C19.7235 25.6821 19.5946 25.6571 19.3225 25.6839C19.2663 25.6891 19.2102 25.6944 19.1523 25.6998C19.0882 25.7065 19.0882 25.7065 19.0228 25.7134C19.1652 25.6274 19.2784 25.5816 19.4379 25.5303C19.4882 25.514 19.5385 25.4976 19.5903 25.4808C19.6428 25.464 19.6952 25.4472 19.7492 25.4298C19.8529 25.3965 19.9565 25.363 20.0601 25.3294C20.106 25.3147 20.152 25.2999 20.1993 25.2847C20.3261 25.2434 20.3261 25.2434 20.4401 25.185C20.4712 25.1722 20.5022 25.1594 20.5342 25.1462Z" fill="#025E5D"/>
<path d="M11.3616 25.1936C11.5348 25.225 11.6615 25.2493 11.8186 25.3075C11.853 25.3202 11.8875 25.3328 11.9229 25.3458C11.958 25.359 11.9932 25.3721 12.0293 25.3856C12.0654 25.3989 12.1015 25.4123 12.1387 25.426C12.2272 25.4586 12.3156 25.4915 12.4039 25.5245C12.2262 25.7043 12.0245 25.8188 11.798 25.941C11.7626 25.9609 11.7271 25.9807 11.6906 26.0011C11.6003 26.0502 11.5071 26.095 11.4137 26.139C11.3793 26.1234 11.3449 26.1078 11.3094 26.0917C11.3266 25.7953 11.3438 25.499 11.3616 25.1936Z" fill="#036462"/>
<path d="M20.1694 25.3826C20.1006 25.4917 20.0318 25.6009 19.9609 25.7134C19.9052 25.7075 19.9052 25.7075 19.8484 25.7014C19.5601 25.6736 19.3074 25.6618 19.0228 25.7134C19.2147 25.5974 19.409 25.5375 19.6254 25.4682C19.6661 25.4547 19.7068 25.4412 19.7487 25.4273C20.0526 25.3296 20.0526 25.3296 20.1694 25.3826Z" fill="#035250"/>
<path d="M5.31592 18.5762C5.45279 18.7624 5.51238 18.9548 5.58628 19.167C5.6086 19.2285 5.6086 19.2285 5.63137 19.2913C5.64518 19.3307 5.65898 19.3701 5.67321 19.4107C5.68592 19.4467 5.69863 19.4827 5.71172 19.5198C5.73286 19.6161 5.73286 19.6161 5.68074 19.7579C5.50203 19.6325 5.48213 19.4956 5.4397 19.3C5.42686 19.2412 5.41403 19.1824 5.40081 19.1218C5.36522 18.9399 5.33618 18.7599 5.31592 18.5762Z" fill="#149682"/>
<path d="M3.23123 13.7075C3.26563 13.7231 3.30002 13.7387 3.33546 13.7548C3.26825 13.8198 3.19856 13.8828 3.12699 13.9439C3.0926 13.9439 3.0582 13.9439 3.02276 13.9439C2.98836 14.0062 2.95396 14.0686 2.91853 14.1329C2.86693 14.1173 2.81533 14.1017 2.76217 14.0857C2.74497 14.1325 2.72778 14.1792 2.71006 14.2275C2.64126 14.1963 2.57247 14.1651 2.50159 14.1329C2.62071 14.0606 2.74016 13.9888 2.85989 13.9173C2.91078 13.8862 2.91078 13.8862 2.9627 13.8546C3.05019 13.8026 3.14056 13.7547 3.23123 13.7075Z" fill="#54B5A6"/>
<path d="M28.5603 13.7549C28.7531 13.8198 28.9226 13.8997 29.0978 13.9971C29.1438 14.0226 29.1898 14.0481 29.2372 14.0743C29.2718 14.0937 29.3064 14.1131 29.3421 14.133C29.1857 14.1803 29.1857 14.1803 29.0294 14.133C29.0294 14.1018 29.0294 14.0706 29.0294 14.0385C28.9434 14.0229 28.8574 14.0073 28.7688 13.9912C28.7688 13.96 28.7688 13.9288 28.7688 13.8967C28.7 13.8811 28.6312 13.8655 28.5603 13.8494C28.5603 13.8182 28.5603 13.787 28.5603 13.7549Z" fill="#4B8D8A"/>
<path d="M11.3616 8.41357C11.3788 8.44477 11.396 8.47597 11.4137 8.50811C11.3204 8.55427 11.2271 8.60043 11.1338 8.64659C11.0402 8.69312 11.0402 8.69312 10.9968 8.79171C10.9005 8.82162 10.9005 8.82162 10.785 8.84489C10.7468 8.85281 10.7086 8.86073 10.6692 8.86889C10.6397 8.87462 10.6102 8.88035 10.5798 8.88625C10.7337 8.73339 10.8862 8.6394 11.088 8.54356C11.1393 8.51894 11.1906 8.49433 11.2435 8.46897C11.2825 8.45069 11.3214 8.43241 11.3616 8.41357Z" fill="#096462"/>
<path d="M22.6189 24.0117C22.6533 24.0273 22.6877 24.0429 22.7231 24.059C22.6973 24.0863 22.6715 24.1136 22.6449 24.1417C22.5475 24.253 22.5475 24.253 22.5667 24.4371C22.498 24.4059 22.4292 24.3747 22.3583 24.3426C22.379 24.2062 22.3995 24.1619 22.5179 24.0708C22.5512 24.0513 22.5845 24.0318 22.6189 24.0117Z" fill="#085E5B"/>
<path d="M10.1108 9.12256C10.1452 9.13816 10.1796 9.15376 10.215 9.16983C10.0663 9.30841 9.92051 9.43656 9.74596 9.54796C9.71156 9.53237 9.67716 9.51677 9.64172 9.5007C9.79651 9.37591 9.9513 9.25113 10.1108 9.12256Z" fill="#0B6B66"/>
<path d="M0.469076 7.37378C0.503473 7.38938 0.53787 7.40498 0.57331 7.42105C0.556111 7.45224 0.538913 7.48344 0.521193 7.51558C0.486796 7.51558 0.452398 7.51558 0.416958 7.51558C0.39976 7.56238 0.382561 7.60917 0.364841 7.65738C0.257349 7.68988 0.257349 7.68988 0.156372 7.70465C0.166144 7.61898 0.166144 7.61898 0.208489 7.51558C0.335525 7.42991 0.335525 7.42991 0.469076 7.37378Z" fill="#46B0A6"/>
<path d="M30.0716 6.71191C30.2084 6.75623 30.2084 6.75623 30.3322 6.80645C30.1759 6.90098 30.1759 6.90098 30.0195 6.90098C29.9851 6.93218 29.9507 6.96338 29.9153 6.99552C29.9348 6.8803 29.9348 6.8803 29.9674 6.75918C30.0018 6.74358 30.0362 6.72798 30.0716 6.71191Z" fill="#2D9793"/>
<path d="M22.5668 9.73706C22.7511 9.82741 22.8685 9.90847 22.9837 10.0679C22.9321 10.0679 22.8805 10.0679 22.8274 10.0679C22.8274 10.0367 22.8274 10.0055 22.8274 9.9734C22.793 9.9734 22.7586 9.9734 22.7231 9.9734C22.6384 9.9084 22.6384 9.9084 22.5668 9.8316C22.5668 9.8004 22.5668 9.7692 22.5668 9.73706Z" fill="#27716D"/>
</g>
<defs>
<clipPath id="clip0_78_70">
<rect width="32" height="32" fill="white"/>
</clipPath>
</defs>
</svg>
